<svg xmlns="http://www.w3.org/2000/svg" fill="none" viewBox="0 0 128 128" height="128" width="128">
<path stroke-linejoin="round" stroke-linecap="round" stroke-width="3.17133" stroke="white" d="M116.029 34.7495C116.015 34.5485 115.938 34.3619 115.804 34.2135L102.966 20.2505C102.966 20.2505 102.937 20.2266 102.922 20.2122C102.899 20.1883 102.875 20.1691 102.851 20.1452C102.827 20.1261 102.803 20.1117 102.779 20.0974C102.76 20.0878 102.745 20.0734 102.731 20.0639C102.722 20.0591 102.712 20.0543 102.702 20.0495C102.679 20.0352 102.65 20.0256 102.626 20.016C102.597 20.0064 102.564 19.9921 102.535 19.9873C102.511 19.9825 102.487 19.9777 102.463 19.9729C102.43 19.9682 102.396 19.9634 102.358 19.9634C102.348 19.9634 102.339 19.9634 102.325 19.9634H59.9096C59.6656 19.9634 59.4265 20.0687 59.2638 20.2457L46.425 34.2087C46.425 34.2087 46.4154 34.2183 46.4154 34.2231C46.4154 34.2231 46.4059 34.2327 46.4011 34.2327C46.3915 34.247 46.382 34.2614 46.3724 34.2757C46.3533 34.3044 46.3341 34.3284 46.315 34.3571C46.3006 34.381 46.2911 34.4049 46.2815 34.4241C46.2672 34.4528 46.2576 34.4767 46.248 34.5054C46.2385 34.5293 46.2337 34.5581 46.2241 34.582C46.2193 34.6107 46.2098 34.6394 46.205 34.6681C46.205 34.6968 46.2002 34.7208 46.1954 34.7495C46.1954 34.7638 46.1954 34.783 46.1954 34.7973V105.608C46.1954 105.608 46.1954 105.632 46.1954 105.646C46.1763 105.876 46.248 106.105 46.4059 106.292C46.492 106.393 46.5972 106.469 46.712 106.522L59.259 120.169C59.4265 120.351 59.6609 120.451 59.9048 120.451H60.1392H102.31C102.315 120.451 102.325 120.451 102.329 120.451C102.387 120.451 102.449 120.442 102.506 120.432C102.525 120.432 102.545 120.418 102.564 120.413C102.607 120.399 102.655 120.384 102.693 120.365C102.702 120.365 102.712 120.36 102.717 120.356C102.736 120.346 102.75 120.332 102.765 120.322C102.789 120.308 102.812 120.293 102.836 120.274C102.86 120.255 102.884 120.231 102.908 120.207C102.922 120.193 102.937 120.183 102.951 120.169L115.79 106.206C115.79 106.206 115.8 106.196 115.804 106.192C115.804 106.192 115.814 106.187 115.814 106.182C115.823 106.168 115.833 106.153 115.843 106.139C115.862 106.11 115.881 106.086 115.9 106.058C115.914 106.034 115.924 106.01 115.933 105.991C115.948 105.962 115.957 105.938 115.967 105.909C115.977 105.885 115.981 105.857 115.991 105.833C115.996 105.804 116.005 105.775 116.01 105.747C116.01 105.718 116.015 105.694 116.02 105.665C116.02 105.651 116.02 105.632 116.02 105.617V34.8069C116.02 34.8069 116.02 34.7686 116.015 34.7495H116.029Z" opacity="0.48"></path>
<path fill="#040A14" d="M116.029 34.7495C116.015 34.5485 115.938 34.3619 115.804 34.2135L102.966 20.2505C102.966 20.2505 102.937 20.2266 102.922 20.2122C102.899 20.1883 102.875 20.1691 102.851 20.1452C102.827 20.1261 102.803 20.1117 102.779 20.0974C102.76 20.0878 102.745 20.0734 102.731 20.0639C102.722 20.0591 102.712 20.0543 102.702 20.0495C102.679 20.0352 102.65 20.0256 102.626 20.016C102.597 20.0064 102.564 19.9921 102.535 19.9873C102.511 19.9825 102.487 19.9777 102.463 19.9729C102.43 19.9682 102.396 19.9634 102.358 19.9634C102.348 19.9634 102.339 19.9634 102.325 19.9634H59.9096C59.6656 19.9634 59.4265 20.0687 59.2638 20.2457L46.425 34.2087C46.425 34.2087 46.4154 34.2183 46.4154 34.2231C46.4154 34.2231 46.4059 34.2327 46.4011 34.2327C46.3915 34.247 46.382 34.2614 46.3724 34.2757C46.3533 34.3044 46.3341 34.3284 46.315 34.3571C46.3006 34.381 46.2911 34.4049 46.2815 34.4241C46.2672 34.4528 46.2576 34.4767 46.248 34.5054C46.2385 34.5293 46.2337 34.5581 46.2241 34.582C46.2193 34.6107 46.2098 34.6394 46.205 34.6681C46.205 34.6968 46.2002 34.7208 46.1954 34.7495C46.1954 34.7638 46.1954 34.783 46.1954 34.7973V105.608C46.1954 105.608 46.1954 105.632 46.1954 105.646C46.1763 105.876 46.248 106.105 46.4059 106.292C46.492 106.393 46.5972 106.469 46.712 106.522L59.259 120.169C59.4265 120.351 59.6609 120.451 59.9048 120.451H60.1392H102.31C102.315 120.451 102.325 120.451 102.329 120.451C102.387 120.451 102.449 120.442 102.506 120.432C102.525 120.432 102.545 120.418 102.564 120.413C102.607 120.399 102.655 120.384 102.693 120.365C102.702 120.365 102.712 120.36 102.717 120.356C102.736 120.346 102.75 120.332 102.765 120.322C102.789 120.308 102.812 120.293 102.836 120.274C102.86 120.255 102.884 120.231 102.908 120.207C102.922 120.193 102.937 120.183 102.951 120.169L115.79 106.206C115.79 106.206 115.8 106.196 115.804 106.192C115.804 106.192 115.814 106.187 115.814 106.182C115.823 106.168 115.833 106.153 115.843 106.139C115.862 106.11 115.881 106.086 115.9 106.058C115.914 106.034 115.924 106.01 115.933 105.991C115.948 105.962 115.957 105.938 115.967 105.909C115.977 105.885 115.981 105.857 115.991 105.833C115.996 105.804 116.005 105.775 116.01 105.747C116.01 105.718 116.015 105.694 116.02 105.665C116.02 105.651 116.02 105.632 116.02 105.617V34.8069C116.02 34.8069 116.02 34.7686 116.015 34.7495H116.029Z"></path>
<path fill="#00C96B" d="M102.511 118.064L98.3782 110.216L107.275 100.091L113.886 105.694L102.511 118.064Z"></path>
<path fill="#00C96B" d="M47.9509 103.789V36.7065L54.0355 41.8649V98.5018L47.9509 103.789Z"></path>
<path fill="#00C96B" d="M59.6752 22.3943L63.8129 30.2419L54.9491 40.329L48.3384 34.7256L59.6752 22.3943Z"></path>
<path fill="#00C96B" d="M113.905 34.7496L107.309 40.3673L98.3782 30.2037L102.511 22.3608L113.905 34.7496Z"></path>
<path fill="#00C96B" d="M55.7959 43.3579L62.488 49.0283L55.7959 66.3505V43.3579Z"></path>
<path fill="#00C96B" d="M62.88 52.9043V87.5152L56.188 70.2122L62.88 52.9043Z"></path>
<path fill="#00C96B" d="M63.631 47.6885L56.2932 41.4678L64.6882 31.9119L69.2229 40.5203L63.631 47.6885Z"></path>
<path fill="#00C96B" d="M99.3445 52.9043L106.032 70.2122L99.3445 87.5152V52.9043Z"></path>
<path fill="#00C96B" d="M98.6413 47.7458L92.9634 40.4772L97.4981 31.8735L105.97 41.5108L98.6413 47.7458Z"></path>
<path fill="#00C96B" d="M91.6623 39.1709L83.1716 31.3376H95.7904L91.6623 39.1709Z"></path>
<path fill="#00C96B" d="M89.6291 39.6879H72.5952L81.1098 31.8354L89.6291 39.6879Z"></path>
<path fill="#00C96B" d="M70.524 39.2092L66.3767 31.3376H79.0529L70.524 39.2092Z"></path>
<path fill="#00C96B" d="M64.6404 49.2581L70.7345 41.4487H71.0263H71.2416H91.4899L97.5841 49.2581V91.1663L91.4899 98.9709H70.7345L64.6404 91.1663V49.2581Z"></path>
<path fill="#00C96B" d="M89.7058 100.732L81.1099 108.589L72.5188 100.732H89.7058Z"></path>
<path fill="#00C96B" d="M70.5433 101.311L79.0435 109.082H66.5396L70.5433 101.311Z"></path>
<path fill="#00C96B" d="M91.6909 101.306L95.7904 109.082H83.1812L91.6909 101.306Z"></path>
<path fill="#00C96B" d="M92.9634 99.947L98.5935 92.7358L105.931 98.9517L97.4981 108.551L92.9634 99.947Z"></path>
<path fill="#00C96B" d="M99.7366 91.3912L106.429 74.0737V97.0663L99.7366 91.3912Z"></path>
<path fill="#00C96B" d="M106.429 66.3505L99.7654 49.1049L106.429 43.4297V66.3505Z"></path>
<path fill="#00C96B" d="M96.7183 29.5768H65.4488L61.3159 21.7244H100.856L96.7183 29.5768Z"></path>
<path fill="#00C96B" d="M55.7959 74.0737L62.421 91.2141L55.7959 96.9706V74.0737Z"></path>
<path fill="#00C96B" d="M63.5212 92.5923L69.2614 99.9518L64.7936 108.627L56.2551 98.9087L63.5212 92.5923Z"></path>
<path fill="#00C96B" d="M65.6306 110.843H96.7184L100.856 118.695H61.5886L65.6306 110.843Z"></path>
<path fill="#00C96B" d="M108.189 98.5594V41.9321L114.274 36.7498V103.713L108.189 98.5594Z"></path>
<path fill="#00C96B" d="M48.3862 105.747L54.9252 100.062L63.9277 110.312L59.8522 118.217L48.3862 105.747Z"></path>
<path fill="white" d="M102.511 118.064L98.3782 110.216L107.275 100.091L113.886 105.694L102.511 118.064Z" opacity="0.48"></path>
<path fill="white" d="M47.9509 103.789V36.7065L54.0355 41.8649V98.5018L47.9509 103.789Z" opacity="0.9"></path>
<path fill="white" d="M59.6752 22.3943L63.8129 30.2419L54.9491 40.329L48.3384 34.7256L59.6752 22.3943Z" opacity="0.6"></path>
<path fill="white" d="M113.905 34.7496L107.309 40.3673L98.3782 30.2037L102.511 22.3608L113.905 34.7496Z" opacity="0.48"></path>
<path fill="white" d="M55.7959 43.3579L62.488 49.0283L55.7959 66.3505V43.3579Z" opacity="0.6"></path>
<path fill="white" d="M62.88 52.9043V87.5152L56.188 70.2122L62.88 52.9043Z" opacity="0.9"></path>
<path fill="white" d="M63.631 47.6885L56.2932 41.4678L64.6882 31.9119L69.2229 40.5203L63.631 47.6885Z" opacity="0.9"></path>
<path fill="white" d="M99.3445 52.9043L106.032 70.2122L99.3445 87.5152V52.9043Z" opacity="0.1"></path>
<path fill="white" d="M98.6413 47.7458L92.9634 40.4772L97.4981 31.8735L105.97 41.5108L98.6413 47.7458Z" opacity="0.3"></path>
<path fill="white" d="M91.6623 39.1709L83.1716 31.3376H95.7904L91.6623 39.1709Z" opacity="0.5"></path>
<path fill="white" d="M89.6291 39.6876H72.5952L81.1098 31.8352L89.6291 39.6876Z" opacity="0.4"></path>
<path fill="white" d="M70.5242 39.2092L66.377 31.3376H79.0531L70.5242 39.2092Z" opacity="0.6"></path>
<path fill="white" d="M64.6404 49.2581L70.7345 41.4487H71.0263H71.2416H91.4899L97.5841 49.2581V91.1663L91.4899 98.9709H70.7345L64.6404 91.1663V49.2581Z" opacity="0.6"></path>
<path fill="white" d="M89.7055 100.732L81.1097 108.589L72.5186 100.732H89.7055Z" opacity="0.4"></path>
<path fill="white" d="M70.5433 101.311L79.0435 109.082H66.5396L70.5433 101.311Z" opacity="0.6"></path>
<path fill="white" d="M91.6907 101.306L95.7901 109.082H83.1809L91.6907 101.306Z" opacity="0.5"></path>
<path fill="white" d="M92.9634 99.947L98.5935 92.7358L105.931 98.9517L97.4981 108.551L92.9634 99.947Z" opacity="0.3"></path>
<path fill="white" d="M99.7366 91.3912L106.429 74.0737V97.0663L99.7366 91.3912Z" opacity="0.4"></path>
<path fill="white" d="M106.429 66.3505L99.7654 49.1049L106.429 43.4297V66.3505Z" opacity="0.4"></path>
<path fill="white" d="M96.7183 29.5768H65.4488L61.3159 21.7244H100.856L96.7183 29.5768Z" opacity="0.8"></path>
<path fill="white" d="M55.7959 74.0737L62.421 91.2141L55.7959 96.9706V74.0737Z" opacity="0.6"></path>
<path fill="white" d="M63.5212 92.5923L69.2614 99.9518L64.7936 108.627L56.2551 98.9087L63.5212 92.5923Z" opacity="0.9"></path>
<path fill="white" d="M65.6306 110.843H96.7184L100.856 118.695H61.5886L65.6306 110.843Z" opacity="0.8"></path>
<path fill="white" d="M108.189 98.5594V41.9321L114.274 36.7498V103.713L108.189 98.5594Z" opacity="0.1"></path>
<path fill="white" d="M48.3862 105.747L54.9252 100.062L63.9277 110.312L59.8522 118.217L48.3862 105.747Z" opacity="0.6"></path>
<g opacity="0.4" style="mix-blend-mode:overlay">
<path fill="#00C96B" d="M102.511 118.064L98.3782 110.216L107.275 100.091L113.886 105.694L102.511 118.064Z"></path>
<path fill="#00C96B" d="M47.9509 103.789V36.7065L54.0355 41.8649V98.5018L47.9509 103.789Z"></path>
<path fill="#00C96B" d="M59.6752 22.3943L63.8129 30.2419L54.9491 40.329L48.3384 34.7256L59.6752 22.3943Z"></path>
<path fill="#00C96B" d="M113.905 34.7496L107.309 40.3673L98.3782 30.2037L102.511 22.3608L113.905 34.7496Z"></path>
<path fill="#00C96B" d="M55.7959 43.3579L62.488 49.0283L55.7959 66.3505V43.3579Z"></path>
<path fill="#00C96B" d="M62.88 52.9043V87.5152L56.188 70.2122L62.88 52.9043Z"></path>
<path fill="#00C96B" d="M63.631 47.6885L56.2932 41.4678L64.6882 31.9119L69.2229 40.5203L63.631 47.6885Z"></path>
<path fill="#00C96B" d="M99.3445 52.9043L106.032 70.2122L99.3445 87.5152V52.9043Z"></path>
<path fill="#00C96B" d="M98.6413 47.7458L92.9634 40.4772L97.4981 31.8735L105.97 41.5108L98.6413 47.7458Z"></path>
<path fill="#00C96B" d="M91.6623 39.1709L83.1716 31.3376H95.7904L91.6623 39.1709Z"></path>
<path fill="#00C96B" d="M89.6291 39.6879H72.5952L81.1098 31.8354L89.6291 39.6879Z"></path>
<path fill="#00C96B" d="M70.524 39.2092L66.3767 31.3376H79.0529L70.524 39.2092Z"></path>
<path fill="#00C96B" d="M89.7058 100.732L81.1099 108.589L72.5188 100.732H89.7058Z"></path>
<path fill="#00C96B" d="M70.5433 101.311L79.0435 109.082H66.5396L70.5433 101.311Z"></path>
<path fill="#00C96B" d="M91.6909 101.306L95.7904 109.082H83.1812L91.6909 101.306Z"></path>
<path fill="#00C96B" d="M92.9634 99.947L98.5935 92.7358L105.931 98.9517L97.4981 108.551L92.9634 99.947Z"></path>
<path fill="#00C96B" d="M99.7366 91.3912L106.429 74.0737V97.0663L99.7366 91.3912Z"></path>
<path fill="#00C96B" d="M106.429 66.3505L99.7654 49.1049L106.429 43.4297V66.3505Z"></path>
<path fill="#00C96B" d="M96.7183 29.5768H65.4488L61.3159 21.7244H100.856L96.7183 29.5768Z"></path>
<path fill="#00C96B" d="M55.7959 74.0737L62.421 91.2141L55.7959 96.9706V74.0737Z"></path>
<path fill="#00C96B" d="M63.5212 92.5923L69.2614 99.9518L64.7936 108.627L56.2551 98.9087L63.5212 92.5923Z"></path>
<path fill="#00C96B" d="M65.6306 110.843H96.7184L100.856 118.695H61.5886L65.6306 110.843Z"></path>
<path fill="#00C96B" d="M108.189 98.5594V41.9321L114.274 36.7498V103.713L108.189 98.5594Z"></path>
<path fill="#00C96B" d="M48.3862 105.747L54.9252 100.062L63.9277 110.312L59.8522 118.217L48.3862 105.747Z"></path>
</g>
<g clip-path="url(#clip0_1657_7753)">
<path stroke-linejoin="round" stroke-linecap="round" stroke-width="3.17133" stroke="white" d="M60.4012 52.3165L30.1508 42.5171C30.1508 42.5171 30.1345 42.5132 30.1264 42.5113C30.0812 42.499 30.0369 42.4903 29.9898 42.4862C29.9744 42.486 29.9626 42.4849 29.9472 42.4848C29.8928 42.4823 29.8366 42.488 29.7784 42.5019C29.7203 42.5158 29.6711 42.5352 29.6201 42.5628C29.6055 42.5663 29.5964 42.5761 29.5827 42.5833C29.5425 42.6082 29.5069 42.636 29.4721 42.6674C29.4657 42.6727 29.4585 42.6745 29.4529 42.6835L6.8848 65.0797C6.8848 65.0797 6.87373 65.0977 6.86733 65.1031C6.83983 65.1328 6.81597 65.1616 6.79747 65.1968C6.78917 65.2103 6.77724 65.2247 6.76981 65.2419C6.76428 65.2509 6.75511 65.2608 6.75045 65.2735C6.73749 65.2996 6.73266 65.3277 6.72334 65.3531C6.71867 65.3657 6.71401 65.3784 6.70935 65.3911C6.6952 65.4445 6.68832 65.4962 6.68594 65.5506C6.68768 65.5579 6.68942 65.5652 6.68839 65.577C6.68791 65.6233 6.6947 65.6679 6.70149 65.7125C6.70323 65.7198 6.70497 65.7271 6.7067 65.7344L16.9127 108.528C16.9127 108.528 16.9162 108.543 16.9179 108.55C16.9283 108.594 16.9451 108.632 16.962 108.671C16.9646 108.681 16.9672 108.692 16.9762 108.698C17.0029 108.745 17.0324 108.788 17.0691 108.83C17.079 108.839 17.088 108.845 17.0942 108.855C17.1148 108.877 17.1355 108.899 17.1634 108.919C17.1724 108.925 17.1814 108.93 17.1904 108.936C17.2084 108.947 17.2264 108.958 17.2481 108.968C17.2787 108.984 17.3094 109 17.3437 109.015C17.3527 109.02 17.3617 109.026 17.3698 109.028L47.6202 118.827C47.6202 118.827 47.6364 118.831 47.6446 118.833C47.6898 118.845 47.7341 118.854 47.7812 118.858C47.7966 118.858 47.8084 118.859 47.8238 118.859C47.8782 118.862 47.9344 118.856 47.9926 118.842C48.0507 118.828 48.0999 118.809 48.1509 118.781C48.1655 118.778 48.1746 118.768 48.1883 118.761C48.2285 118.736 48.2641 118.708 48.2989 118.677C48.3053 118.671 48.3125 118.67 48.3181 118.661L70.8898 96.2635C71.0611 96.0956 71.1289 95.8484 71.0733 95.6153L60.8647 52.8104C60.8091 52.5773 60.6334 52.3882 60.4084 52.3148L60.4012 52.3165Z" opacity="0.48"></path>
<path fill="#040A14" d="M60.4012 52.3165L30.1508 42.5171C30.1508 42.5171 30.1345 42.5132 30.1264 42.5113C30.0812 42.499 30.0369 42.4903 29.9898 42.4862C29.9744 42.486 29.9626 42.4849 29.9472 42.4848C29.8928 42.4823 29.8366 42.488 29.7784 42.5019C29.7203 42.5158 29.6711 42.5352 29.6201 42.5628C29.6055 42.5663 29.5964 42.5761 29.5827 42.5833C29.5425 42.6082 29.5069 42.636 29.4721 42.6674C29.4657 42.6727 29.4585 42.6745 29.4529 42.6835L6.8848 65.0797C6.8848 65.0797 6.87373 65.0977 6.86733 65.1031C6.83983 65.1328 6.81597 65.1616 6.79747 65.1968C6.78917 65.2103 6.77724 65.2247 6.76981 65.2419C6.76428 65.2509 6.75511 65.2608 6.75045 65.2735C6.73749 65.2996 6.73266 65.3277 6.72334 65.3531C6.71867 65.3657 6.71401 65.3784 6.70935 65.3911C6.6952 65.4445 6.68832 65.4962 6.68594 65.5506C6.68768 65.5579 6.68942 65.5652 6.68839 65.577C6.68791 65.6233 6.6947 65.6679 6.70149 65.7125C6.70323 65.7198 6.70497 65.7271 6.7067 65.7344L16.9127 108.528C16.9127 108.528 16.9162 108.543 16.9179 108.55C16.9283 108.594 16.9451 108.632 16.962 108.671C16.9646 108.681 16.9672 108.692 16.9762 108.698C17.0029 108.745 17.0324 108.788 17.0691 108.83C17.079 108.839 17.088 108.845 17.0942 108.855C17.1148 108.877 17.1355 108.899 17.1634 108.919C17.1724 108.925 17.1814 108.93 17.1904 108.936C17.2084 108.947 17.2264 108.958 17.2481 108.968C17.2787 108.984 17.3094 109 17.3437 109.015C17.3527 109.02 17.3617 109.026 17.3698 109.028L47.6202 118.827C47.6202 118.827 47.6364 118.831 47.6446 118.833C47.6898 118.845 47.7341 118.854 47.7812 118.858C47.7966 118.858 47.8084 118.859 47.8238 118.859C47.8782 118.862 47.9344 118.856 47.9926 118.842C48.0507 118.828 48.0999 118.809 48.1509 118.781C48.1655 118.778 48.1746 118.768 48.1883 118.761C48.2285 118.736 48.2641 118.708 48.2989 118.677C48.3053 118.671 48.3125 118.67 48.3181 118.661L70.8898 96.2635C71.0611 96.0956 71.1289 95.8484 71.0733 95.6153L60.8647 52.8104C60.8091 52.5773 60.6334 52.3882 60.4084 52.3148L60.4012 52.3165Z"></path>
<path fill="#00A2FF" d="M64.0197 71.9827L54.9556 61.0384L59.9032 54.7223L64.0197 71.9827Z"></path>
<path fill="#00A2FF" d="M48.2261 67.406L35.4404 63.2631L33.4995 55.1248L52.9129 61.4139L48.2261 67.406Z"></path>
<path fill="#00A2FF" d="M42.7205 96.7521L29.8769 92.5922L25.4651 74.0932L35.0488 64.5847L47.8923 68.7445L52.3042 87.2435L42.7205 96.7521Z"></path>
<path fill="#00A2FF" d="M34.103 63.5821L24.566 73.0449L17.7269 69.7708L32.1621 55.4437L34.103 63.5821Z"></path>
<path fill="#00A2FF" d="M24.1135 74.354L28.5097 92.7874L24.0892 98.6235L17.5522 71.2139L24.1135 74.354Z"></path>
<path fill="#00A2FF" d="M29.4059 93.8868L42.3289 98.0739L44.2699 106.212L24.8393 99.9156L29.4059 93.8868Z"></path>
<path fill="#00A2FF" d="M43.6665 97.7548L53.1999 88.2929L59.9867 91.6218L45.6074 105.893L43.6665 97.7548Z"></path>
<path fill="#00A2FF" d="M53.6557 86.9829L49.2169 68.371L53.6685 62.6815L60.2333 90.2077L53.6557 86.9829Z"></path>
<path fill="#00A2FF" d="M34.6119 54.0392L45.3151 49.3536L52.5057 59.836L34.6119 54.0392Z"></path>
<path fill="#00A2FF" d="M17.3274 68.226L19.0131 55.6266L30.679 54.9774L17.3274 68.226Z"></path>
<path fill="#00A2FF" d="M22.4581 97.7112L13.3824 86.7504L16.5345 72.8734L22.4581 97.7112Z"></path>
<path fill="#00A2FF" d="M43.157 107.298L32.4538 111.983L25.2632 101.501L43.157 107.298Z"></path>
<path fill="#00A2FF" d="M60.4416 93.111L58.7558 105.71L47.0899 106.36L60.4416 93.111Z"></path>
<path fill="#00A2FF" d="M61.2349 88.4632L55.3113 63.6255L64.3869 74.5863L61.2349 88.4632Z"></path>
<path fill="#00A2FF" d="M54.1612 59.8186L47.0403 49.4351L59.2053 53.3756L54.1612 59.8186Z"></path>
<path fill="#00A2FF" d="M33.0451 53.2195L30.8948 44.2031L43.9677 48.4392L33.0451 53.2195Z"></path>
<path fill="#00A2FF" d="M31.7077 53.5385L19.8032 54.2022L29.5573 44.5221L31.7077 53.5385Z"></path>
<path fill="#00A2FF" d="M15.8523 68.8704L8.5487 65.3722L17.5106 56.4778L15.8523 68.8704Z"></path>
<path fill="#00A2FF" d="M15.704 70.3264L12.535 84.2614L8.37427 66.8152L15.704 70.3264Z"></path>
<path fill="#00A2FF" d="M22.8181 100.301L17.9068 106.786L13.7495 89.3542L22.8181 100.301Z"></path>
<path fill="#00A2FF" d="M23.6149 101.532L30.7287 111.902L18.7092 108.007L23.6149 101.532Z"></path>
<path fill="#00A2FF" d="M44.7241 108.117L46.8735 117.13L33.8014 112.898L44.7241 108.117Z"></path>
<path fill="#00A2FF" d="M46.0618 107.798L57.9662 107.135L48.2112 116.811L46.0618 107.798Z"></path>
<path fill="#00A2FF" d="M61.9041 92.5582L69.0995 96.0861L60.2585 104.859L61.9041 92.5582Z"></path>
<path fill="#00A2FF" d="M62.0469 91.0957L65.234 77.0756L69.4417 94.7185L62.0469 91.0957Z"></path>
<path fill="white" d="M64.0197 71.9827L54.9556 61.0384L59.9032 54.7223L64.0197 71.9827Z" opacity="0.1"></path>
<path fill="white" d="M48.2261 67.406L35.4404 63.2631L33.4995 55.1248L52.9129 61.4139L48.2261 67.406Z" opacity="0.4"></path>
<path fill="white" d="M42.7205 96.7521L29.8769 92.5922L25.4651 74.0932L35.0488 64.5847L47.8923 68.7445L52.3042 87.2435L42.7205 96.7521Z" opacity="0.6"></path>
<path fill="white" d="M34.103 63.5821L24.566 73.0449L17.7269 69.7708L32.1621 55.4437L34.103 63.5821Z" opacity="0.6"></path>
<path fill="white" d="M24.1135 74.354L28.5097 92.7874L24.0892 98.6235L17.5522 71.2139L24.1135 74.354Z" opacity="0.8"></path>
<path fill="white" d="M29.4059 93.8868L42.3289 98.0739L44.2699 106.212L24.8393 99.9156L29.4059 93.8868Z" opacity="0.6"></path>
<path fill="white" d="M43.6665 97.7548L53.1999 88.2929L59.9867 91.6218L45.6074 105.893L43.6665 97.7548Z" opacity="0.4"></path>
<path fill="white" d="M53.6557 86.9829L49.2169 68.371L53.6685 62.6815L60.2333 90.2077L53.6557 86.9829Z" opacity="0.1"></path>
<path fill="white" d="M34.6119 54.0392L45.3151 49.3536L52.5057 59.836L34.6119 54.0392Z" opacity="0.6"></path>
<path fill="white" d="M17.3274 68.226L19.0131 55.6266L30.679 54.9774L17.3274 68.226Z" opacity="0.8"></path>
<path fill="white" d="M22.4581 97.7112L13.3824 86.7504L16.5345 72.8734L22.4581 97.7112Z" opacity="0.6"></path>
<path fill="white" d="M43.157 107.298L32.4538 111.983L25.2632 101.501L43.157 107.298Z" opacity="0.8"></path>
<path fill="white" d="M60.4416 93.111L58.7558 105.71L47.0899 106.36L60.4416 93.111Z" opacity="0.6"></path>
<path fill="white" d="M61.2349 88.4632L55.3113 63.6255L64.3869 74.5863L61.2349 88.4632Z" opacity="0.6"></path>
<path fill="white" d="M54.1612 59.8186L47.0403 49.4351L59.2053 53.3756L54.1612 59.8186Z" opacity="0.4"></path>
<path fill="white" d="M33.0451 53.2195L30.8948 44.2031L43.9677 48.4392L33.0451 53.2195Z" opacity="0.4"></path>
<path fill="white" d="M31.7077 53.5385L19.8032 54.2022L29.5573 44.5221L31.7077 53.5385Z" opacity="0.6"></path>
<path fill="white" d="M15.8523 68.8704L8.5487 65.3722L17.5106 56.4778L15.8523 68.8704Z" opacity="0.6"></path>
<path fill="white" d="M15.704 70.3264L12.535 84.2614L8.37427 66.8152L15.704 70.3264Z" opacity="0.8"></path>
<path fill="white" d="M22.8181 100.301L17.9068 106.786L13.7495 89.3542L22.8181 100.301Z" opacity="0.8"></path>
<path fill="white" d="M23.6149 101.532L30.7287 111.902L18.7092 108.007L23.6149 101.532Z" opacity="0.6"></path>
<path fill="white" d="M44.7241 108.117L46.8735 117.13L33.8014 112.898L44.7241 108.117Z" opacity="0.6"></path>
<path fill="white" d="M46.0618 107.798L57.9662 107.135L48.2112 116.811L46.0618 107.798Z" opacity="0.4"></path>
<path fill="white" d="M61.9041 92.5582L69.0995 96.0861L60.2585 104.859L61.9041 92.5582Z" opacity="0.4"></path>
<path fill="white" d="M62.0469 91.0957L65.234 77.0756L69.4417 94.7185L62.0469 91.0957Z" opacity="0.1"></path>
<g opacity="0.4" style="mix-blend-mode:overlay">
<path fill="#00A2FF" d="M64.0197 71.9827L54.9556 61.0384L59.9032 54.7223L64.0197 71.9827Z"></path>
<path fill="#00A2FF" d="M48.2261 67.406L35.4404 63.2631L33.4995 55.1248L52.9129 61.4139L48.2261 67.406Z"></path>
<path fill="#00A2FF" d="M34.103 63.5821L24.566 73.0449L17.7269 69.7708L32.1621 55.4437L34.103 63.5821Z"></path>
<path fill="#00A2FF" d="M24.1135 74.354L28.5097 92.7874L24.0892 98.6235L17.5522 71.2139L24.1135 74.354Z"></path>
<path fill="#00A2FF" d="M29.4059 93.8868L42.3289 98.0739L44.2699 106.212L24.8393 99.9156L29.4059 93.8868Z"></path>
<path fill="#00A2FF" d="M43.6665 97.7548L53.1999 88.2929L59.9867 91.6218L45.6074 105.893L43.6665 97.7548Z"></path>
<path fill="#00A2FF" d="M53.6557 86.9829L49.2169 68.371L53.6685 62.6815L60.2333 90.2077L53.6557 86.9829Z"></path>
<path fill="#00A2FF" d="M34.6119 54.0392L45.3151 49.3536L52.5057 59.836L34.6119 54.0392Z"></path>
<path fill="#00A2FF" d="M17.3274 68.226L19.0131 55.6266L30.679 54.9774L17.3274 68.226Z"></path>
<path fill="#00A2FF" d="M22.4581 97.7112L13.3824 86.7504L16.5345 72.8734L22.4581 97.7112Z"></path>
<path fill="#00A2FF" d="M43.157 107.298L32.4538 111.983L25.2632 101.501L43.157 107.298Z"></path>
<path fill="#00A2FF" d="M60.4416 93.111L58.7558 105.71L47.0899 106.36L60.4416 93.111Z"></path>
<path fill="#00A2FF" d="M61.2349 88.4632L55.3113 63.6255L64.3869 74.5863L61.2349 88.4632Z"></path>
<path fill="#00A2FF" d="M54.1612 59.8186L47.0403 49.4351L59.2053 53.3756L54.1612 59.8186Z"></path>
<path fill="#00A2FF" d="M33.0451 53.2195L30.8948 44.2031L43.9677 48.4392L33.0451 53.2195Z"></path>
<path fill="#00A2FF" d="M31.7077 53.5385L19.8032 54.2022L29.5573 44.5221L31.7077 53.5385Z"></path>
<path fill="#00A2FF" d="M15.8523 68.8704L8.5487 65.3722L17.5106 56.4778L15.8523 68.8704Z"></path>
<path fill="#00A2FF" d="M15.704 70.3264L12.535 84.2614L8.37427 66.8152L15.704 70.3264Z"></path>
<path fill="#00A2FF" d="M22.8181 100.301L17.9068 106.786L13.7495 89.3542L22.8181 100.301Z"></path>
<path fill="#00A2FF" d="M23.6149 101.532L30.7287 111.902L18.7092 108.007L23.6149 101.532Z"></path>
<path fill="#00A2FF" d="M44.7241 108.117L46.8735 117.13L33.8014 112.898L44.7241 108.117Z"></path>
<path fill="#00A2FF" d="M46.0618 107.798L57.9662 107.135L48.2112 116.811L46.0618 107.798Z"></path>
<path fill="#00A2FF" d="M61.9041 92.5582L69.0995 96.0861L60.2585 104.859L61.9041 92.5582Z"></path>
<path fill="#00A2FF" d="M62.0469 91.0957L65.234 77.0756L69.4417 94.7185L62.0469 91.0957Z"></path>
</g>
</g>
<g clip-path="url(#clip1_1657_7753)">
<path stroke-linejoin="round" stroke-linecap="round" stroke-width="3.17133" stroke="white" d="M84.6861 28.5406C84.6895 28.5279 84.6936 28.5126 84.692 28.4984C84.6968 28.4806 84.6983 28.4646 84.7005 28.446C84.704 28.4332 84.699 28.421 84.6999 28.4075C84.6996 28.3883 84.6993 28.3691 84.6964 28.3491C84.6971 28.3466 84.6985 28.3415 84.6966 28.3382C84.6935 28.3292 84.6905 28.3202 84.69 28.3118C84.6864 28.2945 84.6803 28.2764 84.6742 28.2584C84.67 28.2436 84.6632 28.2281 84.6557 28.2151C84.6526 28.2061 84.6496 28.1971 84.644 28.1874L75.4913 10.6786C75.426 10.5545 75.3134 10.4641 75.1782 10.4279L56.9108 5.53314C56.893 5.52836 56.8744 5.52612 56.8533 5.5232C56.8508 5.52252 56.8457 5.52115 56.8431 5.52046C56.7292 5.50637 56.6109 5.52938 56.5117 5.5931L40.0227 16.056C39.9049 16.0874 39.812 16.1582 39.747 16.2475C39.7431 16.252 39.7392 16.2564 39.7353 16.2608C39.7274 16.2696 39.7203 16.2759 39.7131 16.2822C39.7118 16.2873 39.7111 16.2899 39.7046 16.2936C39.6928 16.3069 39.6829 16.3234 39.6763 16.338C39.6678 16.3494 39.6618 16.3615 39.6526 16.3754C39.6459 16.3901 39.6393 16.4047 39.6352 16.42C39.6311 16.4353 39.6219 16.4493 39.6177 16.4646C39.6177 16.4646 39.6171 16.4672 39.6164 16.4697L34.2949 36.3299C34.2949 36.3299 34.2942 36.3325 34.2935 36.335C34.2901 36.3478 34.286 36.3631 34.2876 36.3772C34.2829 36.3951 34.2813 36.4111 34.2791 36.4297C34.2757 36.4424 34.2806 36.4547 34.2797 36.4681C34.28 36.4874 34.2803 36.5066 34.2832 36.5265C34.2825 36.5291 34.2812 36.5342 34.283 36.5374C34.2817 36.5425 34.2861 36.5465 34.2873 36.5523C34.2937 36.5895 34.3052 36.6282 34.3232 36.6631C34.327 36.6696 34.3281 36.6754 34.3319 36.6819C34.3319 36.6819 34.3312 36.6844 34.3331 36.6876L43.4872 54.1912C43.4872 54.1912 43.4935 54.1984 43.4953 54.2016C43.504 54.2204 43.5159 54.2372 43.531 54.2522C43.5392 54.2626 43.5467 54.2756 43.5555 54.2834C43.5681 54.2977 43.5813 54.3095 43.5965 54.3245C43.6072 54.3356 43.6179 54.3467 43.6318 54.3559C43.6369 54.3572 43.6381 54.363 43.6407 54.3637C43.6546 54.3729 43.6711 54.3828 43.6858 54.3895C43.6953 54.3948 43.7048 54.4 43.7143 54.4053C43.7436 54.4186 43.7754 54.4326 43.8061 54.4409L62.0708 59.3349C62.1015 59.3431 62.1353 59.3494 62.168 59.35C62.1782 59.3527 62.1898 59.3503 62.2007 59.3505C62.2174 59.3495 62.2359 59.3518 62.2526 59.3508C62.2577 59.3521 62.2616 59.3477 62.2642 59.3484C62.2783 59.3467 62.2931 59.3425 62.3105 59.3389C62.3279 59.3354 62.3485 59.3299 62.3665 59.3238C62.3788 59.3189 62.3911 59.314 62.4033 59.3091C62.4221 59.3004 62.4408 59.2917 62.4595 59.2831C62.4628 59.2812 62.4686 59.28 62.4718 59.2782L78.9601 48.8178C79.078 48.7864 79.1708 48.7156 79.2358 48.6263C79.2958 48.5657 79.3439 48.4883 79.3665 48.4041L84.6873 28.5464C84.6873 28.5464 84.688 28.5439 84.6887 28.5413L84.6861 28.5406Z" opacity="0.48"></path>
<path fill="#040A14" d="M84.6861 28.5406C84.6895 28.5279 84.6937 28.5126 84.692 28.4984C84.6968 28.4806 84.6983 28.4646 84.7005 28.446C84.704 28.4332 84.699 28.421 84.6999 28.4075C84.6996 28.3883 84.6993 28.3691 84.6964 28.3491C84.6971 28.3466 84.6985 28.3415 84.6966 28.3382C84.6935 28.3292 84.6905 28.3202 84.69 28.3118C84.6864 28.2945 84.6803 28.2764 84.6742 28.2584C84.67 28.2436 84.6632 28.2281 84.6557 28.2151C84.6526 28.2061 84.6496 28.1971 84.644 28.1873L75.4913 10.6786C75.426 10.5545 75.3134 10.4641 75.1781 10.4279L56.9108 5.53314C56.893 5.52836 56.8744 5.52612 56.8533 5.5232C56.8508 5.52252 56.8457 5.52115 56.8431 5.52046C56.7292 5.50637 56.6109 5.52938 56.5117 5.5931L40.0227 16.056C39.9049 16.0874 39.812 16.1582 39.747 16.2475C39.7431 16.252 39.7392 16.2564 39.7353 16.2608C39.7274 16.2696 39.7203 16.2759 39.7131 16.2822C39.7118 16.2873 39.7111 16.2899 39.7046 16.2936C39.6928 16.3069 39.6829 16.3234 39.6763 16.338C39.6678 16.3494 39.6618 16.3615 39.6526 16.3754C39.6459 16.3901 39.6393 16.4047 39.6352 16.42C39.6311 16.4353 39.6219 16.4493 39.6177 16.4646C39.6177 16.4646 39.6171 16.4672 39.6164 16.4697L34.2949 36.3299C34.2949 36.3299 34.2942 36.3325 34.2935 36.335C34.2901 36.3478 34.286 36.3631 34.2876 36.3772C34.2829 36.3951 34.2813 36.4111 34.2791 36.4297C34.2757 36.4424 34.2806 36.4547 34.2797 36.4681C34.28 36.4874 34.2803 36.5066 34.2832 36.5265C34.2825 36.5291 34.2812 36.5342 34.283 36.5374C34.2817 36.5425 34.2861 36.5465 34.2873 36.5523C34.2937 36.5895 34.3052 36.6282 34.3232 36.6631C34.327 36.6696 34.3281 36.6754 34.3319 36.6819C34.3319 36.6819 34.3312 36.6844 34.3331 36.6876L43.4872 54.1912C43.4872 54.1912 43.4935 54.1984 43.4953 54.2016C43.504 54.2204 43.5159 54.2372 43.531 54.2522C43.5392 54.2626 43.5467 54.2756 43.5555 54.2834C43.5681 54.2977 43.5813 54.3095 43.5965 54.3245C43.6072 54.3356 43.6179 54.3467 43.6318 54.3559C43.6369 54.3572 43.6381 54.363 43.6407 54.3637C43.6546 54.3729 43.6711 54.3828 43.6858 54.3895C43.6953 54.3948 43.7048 54.4 43.7143 54.4053C43.7436 54.4186 43.7754 54.4326 43.8061 54.4408L62.0708 59.3349C62.1014 59.3431 62.1353 59.3494 62.168 59.35C62.1782 59.3527 62.1898 59.3503 62.2007 59.3505C62.2174 59.3495 62.2359 59.3518 62.2526 59.3508C62.2577 59.3521 62.2616 59.3477 62.2642 59.3484C62.2783 59.3467 62.2931 59.3425 62.3105 59.3389C62.3279 59.3354 62.3485 59.3299 62.3665 59.3238C62.3788 59.3189 62.3911 59.314 62.4033 59.3091C62.4221 59.3004 62.4408 59.2917 62.4595 59.2831C62.4628 59.2812 62.4686 59.28 62.4718 59.2782L78.9601 48.8178C79.078 48.7864 79.1708 48.7156 79.2358 48.6263C79.2958 48.5657 79.3439 48.4883 79.3665 48.4041L84.6873 28.5464C84.6873 28.5464 84.688 28.5439 84.6887 28.5413L84.6861 28.5406Z"></path>
<path fill="#FF1467" d="M62.617 58.0011L62.1147 53.1059L75.8356 49.6141L62.617 58.0011Z"></path>
<path fill="#FF1467" d="M36.6675 38.9932L46.8865 49.0201L44.0025 53.0134L36.6675 38.9932Z"></path>
<path fill="#FF1467" d="M56.3763 6.86472L56.8747 11.7644L43.1447 15.2592L56.3763 6.86472Z"></path>
<path fill="#FF1467" d="M82.3121 25.8827L72.1152 15.8754L74.9939 11.8915L82.3121 25.8827Z"></path>
<path fill="#FF1467" d="M76.1122 36.1559L70.3662 31.1744L77.7695 29.9706L76.1122 36.1559Z"></path>
<path fill="#FF1467" d="M53.7739 41.7463L59.7856 43.3572L54.9582 49.3551L53.7739 41.7463Z"></path>
<path fill="#FF1467" d="M65.2063 23.1269L59.1947 21.516L64.024 15.5213L65.2063 23.1269Z"></path>
<path fill="#FF1467" d="M66.5379 24.2334L73.8941 23.318L69.5247 29.9448L66.5379 24.2334Z"></path>
<path fill="#FF1467" d="M52.046 25.2614L51.5754 17.3376L57.4884 21.8085L52.046 25.2614Z"></path>
<path fill="#FF1467" d="M49.3287 32.9931L43.8505 28.2475L50.9682 26.8742L49.3287 32.9931Z"></path>
<path fill="#FF1467" d="M52.4424 40.6399L45.0862 41.5553L49.4556 34.9285L52.4424 40.6399Z"></path>
<path fill="#FF1467" d="M66.9343 39.612L67.4049 47.5357L61.4919 43.0648L66.9343 39.612Z"></path>
<path fill="#FF1467" d="M69.6543 31.8811L75.1292 36.6286L68.0147 38L69.6543 31.8811Z"></path>
<path fill="#FF1467" d="M70.6075 30.12L74.8933 23.6212L77.6875 28.9691L70.6075 30.12Z"></path>
<path fill="#FF1467" d="M66.8292 23.1868L71.3762 16.8976L74.1879 22.2721L66.8292 23.1868Z"></path>
<path fill="#FF1467" d="M66.117 22.4652L64.9067 14.688L70.6299 16.2215L66.117 22.4652Z"></path>
<path fill="#FF1467" d="M58.765 20.4544L57.9912 12.8352L63.6736 14.3578L58.765 20.4544Z"></path>
<path fill="#FF1467" d="M57.7935 20.7822L51.8438 16.2851L57.0023 13.0133L57.7935 20.7822Z"></path>
<path fill="#FF1467" d="M50.5582 17.1006L51.0208 24.8909L45.458 20.3387L50.5582 17.1006Z"></path>
<path fill="#FF1467" d="M50.6851 25.909L43.2356 27.3465L44.8909 21.1689L50.6851 25.909Z"></path>
<path fill="#FF1467" d="M42.8674 28.72L48.6141 33.6989L41.2101 34.9052L42.8674 28.72Z"></path>
<path fill="#FF1467" d="M48.3727 34.7532L44.0869 41.252L41.292 35.9066L48.3727 34.7532Z"></path>
<path fill="#FF1467" d="M52.1909 41.6808L47.6201 48.0074L44.7923 42.6013L52.1909 41.6808Z"></path>
<path fill="#FF1467" d="M52.871 42.4513L54.0736 50.1853L48.3836 48.6607L52.871 42.4513Z"></path>
<path fill="#FF1467" d="M60.2153 44.4191L60.9993 52.041L55.3067 50.5157L60.2153 44.4191Z"></path>
<path fill="#FF1467" d="M61.1895 44.0918L67.1366 48.5882L61.9845 51.8562L61.1895 44.0918Z"></path>
<path fill="#FF1467" d="M68.422 47.7727L67.9614 40.0159L73.4652 44.5741L68.422 47.7727Z"></path>
<path fill="#FF1467" d="M68.2687 38.971L75.744 37.5293L74.0702 43.7759L68.2687 38.971Z"></path>
<path fill="#FF1467" d="M78.8539 29.7934L83.5169 29.0346L78.5681 47.5036L74.9188 44.4792L78.8539 29.7934Z"></path>
<path fill="#FF1467" d="M78.7289 28.7994L73.3274 18.4683L83.1257 28.0842L78.7289 28.7994Z"></path>
<path fill="#FF1467" d="M71.2567 15.3527L66.1896 13.9949L74.1092 11.4056L71.2567 15.3527Z"></path>
<path fill="#FF1467" d="M57.8829 11.7692L57.3938 6.96777L62.9092 13.116L57.8829 11.7692Z"></path>
<path fill="#FF1467" d="M44.6417 19.6687L41.1409 16.8045L54.5336 13.3944L44.6417 19.6687Z"></path>
<path fill="#FF1467" d="M44.0411 20.4708L40.1265 35.08L35.4628 35.8414L40.3835 17.4771L44.0411 20.4708Z"></path>
<path fill="#FF1467" d="M40.2507 36.0765L45.6529 46.405L35.8538 36.7916L40.2507 36.0765Z"></path>
<path fill="#FF1467" d="M47.7542 49.529L52.7907 50.8785L44.9188 53.4533L47.7542 49.529Z"></path>
<path fill="#FF1467" d="M61.1076 53.1069L61.6009 57.9231L56.071 51.7573L61.1076 53.1069Z"></path>
<path fill="#FF1467" d="M74.2758 45.2453L77.7215 48.1002L64.4467 51.479L74.2758 45.2453Z"></path>
<path fill="#FF1467" d="M64.5732 13.4714L58.8469 7.08887L72.721 10.8064L64.5732 13.4714Z"></path>
<path fill="#FF1467" d="M54.4097 51.4026L60.1328 57.787L46.2587 54.0694L54.4097 51.4026Z"></path>
<path fill="#FF1467" d="M65.399 24.2155L65.1106 24.1382L58.4837 22.3626L52.1342 26.3931L50.0972 33.9952L53.5815 40.658L60.4968 42.5109L66.8482 38.4836L68.8851 30.8815L65.399 24.2155Z"></path>
<path fill="white" d="M62.617 58.0011L62.1147 53.1059L75.8356 49.6141L62.617 58.0011Z" opacity="0.28"></path>
<path fill="white" d="M36.6675 38.9932L46.8865 49.0201L44.0025 53.0134L36.6675 38.9932Z" opacity="0.8"></path>
<path fill="white" d="M56.3763 6.86472L56.8747 11.7644L43.1447 15.2592L56.3763 6.86472Z" opacity="0.8"></path>
<path fill="white" d="M82.3121 25.8827L72.1152 15.8754L74.9939 11.8915L82.3121 25.8827Z" opacity="0.28"></path>
<path fill="white" d="M76.1122 36.1559L70.3662 31.1744L77.7695 29.9706L76.1122 36.1559Z" opacity="0.1"></path>
<path fill="white" d="M53.7739 41.7463L59.7856 43.3572L54.9582 49.3551L53.7739 41.7463Z" opacity="0.72"></path>
<path fill="white" d="M65.2063 23.1269L59.1947 21.516L64.024 15.5213L65.2063 23.1269Z" opacity="0.72"></path>
<path fill="white" d="M66.5379 24.2334L73.8941 23.318L69.5247 29.9448L66.5379 24.2334Z" opacity="0.6"></path>
<path fill="white" d="M60.4968 42.5109L53.5815 40.658L50.0972 33.9952L52.1342 26.3931L58.4837 22.3626L65.4118 24.2189L68.8851 30.8815L66.8482 38.4836L60.4968 42.5109Z" opacity="0.6"></path>
<path fill="white" d="M52.046 25.2614L51.5754 17.3376L57.4884 21.8085L52.046 25.2614Z" opacity="0.8"></path>
<path fill="white" d="M49.3287 32.9931L43.8505 28.2475L50.9682 26.8742L49.3287 32.9931Z" opacity="0.8"></path>
<path fill="white" d="M52.4424 40.6399L45.0862 41.5553L49.4556 34.9285L52.4424 40.6399Z" opacity="0.8"></path>
<path fill="white" d="M66.9343 39.612L67.4049 47.5357L61.4919 43.0648L66.9343 39.612Z" opacity="0.6"></path>
<path fill="white" d="M69.6543 31.8811L75.1292 36.6286L68.0147 38L69.6543 31.8811Z" opacity="0.4"></path>
<path fill="white" d="M70.6075 30.12L74.8933 23.6212L77.6875 28.9691L70.6075 30.12Z" opacity="0.4"></path>
<path fill="white" d="M66.8292 23.1868L71.3762 16.8976L74.1879 22.2721L66.8292 23.1868Z" opacity="0.28"></path>
<path fill="white" d="M66.117 22.4652L64.9067 14.688L70.6299 16.2215L66.117 22.4652Z" opacity="0.6"></path>
<path fill="white" d="M58.765 20.4544L57.9912 12.8352L63.6736 14.3578L58.765 20.4544Z" opacity="0.4"></path>
<path fill="white" d="M57.7935 20.7822L51.8438 16.2851L57.0023 13.0133L57.7935 20.7822Z" opacity="0.6"></path>
<path fill="white" d="M50.5582 17.1006L51.0208 24.8909L45.458 20.3387L50.5582 17.1006Z" opacity="0.28"></path>
<path fill="white" d="M50.6851 25.909L43.2356 27.3465L44.8909 21.1689L50.6851 25.909Z" opacity="0.6"></path>
<path fill="white" d="M42.8674 28.72L48.6141 33.6989L41.2101 34.9052L42.8674 28.72Z" opacity="0.6"></path>
<path fill="white" d="M48.3727 34.7532L44.0869 41.252L41.292 35.9066L48.3727 34.7532Z" opacity="0.28"></path>
<path fill="white" d="M52.1909 41.6808L47.6201 48.0074L44.7923 42.6013L52.1909 41.6808Z" opacity="0.6"></path>
<path fill="white" d="M52.871 42.4513L54.0736 50.1853L48.3836 48.6607L52.871 42.4513Z" opacity="0.4"></path>
<path fill="white" d="M60.2153 44.4191L60.9993 52.041L55.3067 50.5157L60.2153 44.4191Z" opacity="0.6"></path>
<path fill="white" d="M61.1895 44.0918L67.1366 48.5882L61.9845 51.8562L61.1895 44.0918Z" opacity="0.28"></path>
<path fill="white" d="M68.422 47.7727L67.9614 40.0159L73.4652 44.5741L68.422 47.7727Z" opacity="0.4"></path>
<path fill="white" d="M68.2687 38.971L75.744 37.5293L74.0702 43.7759L68.2687 38.971Z" opacity="0.1"></path>
<path fill="white" d="M78.8539 29.7934L83.5169 29.0346L78.5681 47.5036L74.9188 44.4792L78.8539 29.7934Z" opacity="0.4"></path>
<path fill="white" d="M78.7289 28.7994L73.3274 18.4683L83.1257 28.0842L78.7289 28.7994Z" opacity="0.28"></path>
<path fill="white" d="M71.2567 15.3527L66.1896 13.9949L74.1092 11.4056L71.2567 15.3527Z" opacity="0.4"></path>
<path fill="white" d="M57.8829 11.7692L57.3938 6.96777L62.9092 13.116L57.8829 11.7692Z" opacity="0.6"></path>
<path fill="white" d="M44.6417 19.6687L41.1409 16.8045L54.5336 13.3944L44.6417 19.6687Z" opacity="0.4"></path>
<path fill="white" d="M44.0411 20.4708L40.1265 35.08L35.4628 35.8414L40.3835 17.4771L44.0411 20.4708Z" opacity="0.8"></path>
<path fill="white" d="M40.2507 36.0765L45.6529 46.405L35.8538 36.7916L40.2507 36.0765Z" opacity="0.4"></path>
<path fill="white" d="M47.7542 49.529L52.7907 50.8785L44.9188 53.4533L47.7542 49.529Z" opacity="0.6"></path>
<path fill="white" d="M61.1076 53.1069L61.6009 57.9231L56.071 51.7573L61.1076 53.1069Z" opacity="0.4"></path>
<path fill="white" d="M74.2758 45.2453L77.7215 48.1002L64.4467 51.479L74.2758 45.2453Z" opacity="0.28"></path>
<path fill="white" d="M64.5732 13.4714L58.8469 7.08887L72.721 10.8064L64.5732 13.4714Z" opacity="0.8"></path>
<path fill="white" d="M54.4097 51.4026L60.1328 57.787L46.2587 54.0694L54.4097 51.4026Z" opacity="0.8"></path>
<g opacity="0.4" style="mix-blend-mode:overlay">
<path fill="#FF1467" d="M62.617 58.0011L62.1147 53.1059L75.8356 49.6141L62.617 58.0011Z"></path>
<path fill="#FF1467" d="M36.6675 38.9932L46.8865 49.0201L44.0025 53.0134L36.6675 38.9932Z"></path>
<path fill="#FF1467" d="M56.3763 6.86472L56.8747 11.7644L43.1447 15.2592L56.3763 6.86472Z"></path>
<path fill="#FF1467" d="M82.3121 25.8827L72.1152 15.8754L74.9939 11.8915L82.3121 25.8827Z"></path>
<path fill="#FF1467" d="M76.1122 36.1559L70.3662 31.1744L77.7695 29.9706L76.1122 36.1559Z"></path>
<path fill="#FF1467" d="M53.7739 41.7463L59.7856 43.3572L54.9582 49.3551L53.7739 41.7463Z"></path>
<path fill="#FF1467" d="M65.2063 23.1269L59.1947 21.516L64.024 15.5213L65.2063 23.1269Z"></path>
<path fill="#FF1467" d="M66.5379 24.2334L73.8941 23.318L69.5247 29.9448L66.5379 24.2334Z"></path>
<path fill="#FF1467" d="M52.046 25.2614L51.5754 17.3376L57.4884 21.8085L52.046 25.2614Z"></path>
<path fill="#FF1467" d="M49.3287 32.9931L43.8505 28.2475L50.9682 26.8742L49.3287 32.9931Z"></path>
<path fill="#FF1467" d="M52.4424 40.6399L45.0862 41.5553L49.4556 34.9285L52.4424 40.6399Z"></path>
<path fill="#FF1467" d="M66.9343 39.612L67.4049 47.5357L61.4919 43.0648L66.9343 39.612Z"></path>
<path fill="#FF1467" d="M69.6543 31.8811L75.1292 36.6286L68.0147 38L69.6543 31.8811Z"></path>
<path fill="#FF1467" d="M70.6075 30.12L74.8933 23.6212L77.6875 28.9691L70.6075 30.12Z"></path>
<path fill="#FF1467" d="M66.8292 23.1868L71.3762 16.8976L74.1879 22.2721L66.8292 23.1868Z"></path>
<path fill="#FF1467" d="M66.117 22.4652L64.9067 14.688L70.6299 16.2215L66.117 22.4652Z"></path>
<path fill="#FF1467" d="M58.765 20.4544L57.9912 12.8352L63.6736 14.3578L58.765 20.4544Z"></path>
<path fill="#FF1467" d="M57.7935 20.7822L51.8438 16.2851L57.0023 13.0133L57.7935 20.7822Z"></path>
<path fill="#FF1467" d="M50.5582 17.1006L51.0208 24.8909L45.458 20.3387L50.5582 17.1006Z"></path>
<path fill="#FF1467" d="M50.6851 25.909L43.2356 27.3465L44.8909 21.1689L50.6851 25.909Z"></path>
<path fill="#FF1467" d="M42.8674 28.72L48.6141 33.6989L41.2101 34.9052L42.8674 28.72Z"></path>
<path fill="#FF1467" d="M48.3727 34.7532L44.0869 41.252L41.292 35.9066L48.3727 34.7532Z"></path>
<path fill="#FF1467" d="M52.1909 41.6808L47.6201 48.0074L44.7923 42.6013L52.1909 41.6808Z"></path>
<path fill="#FF1467" d="M52.871 42.4513L54.0736 50.1853L48.3836 48.6607L52.871 42.4513Z"></path>
<path fill="#FF1467" d="M60.2153 44.4191L60.9993 52.041L55.3067 50.5157L60.2153 44.4191Z"></path>
<path fill="#FF1467" d="M61.1895 44.0918L67.1366 48.5882L61.9845 51.8562L61.1895 44.0918Z"></path>
<path fill="#FF1467" d="M68.422 47.7727L67.9614 40.0159L73.4652 44.5741L68.422 47.7727Z"></path>
<path fill="#FF1467" d="M68.2687 38.971L75.744 37.5293L74.0702 43.7759L68.2687 38.971Z"></path>
<path fill="#FF1467" d="M78.8539 29.7934L83.5169 29.0346L78.5681 47.5036L74.9188 44.4792L78.8539 29.7934Z"></path>
<path fill="#FF1467" d="M78.7289 28.7994L73.3274 18.4683L83.1257 28.0842L78.7289 28.7994Z"></path>
<path fill="#FF1467" d="M71.2567 15.3527L66.1896 13.9949L74.1092 11.4056L71.2567 15.3527Z"></path>
<path fill="#FF1467" d="M57.8829 11.7692L57.3938 6.96777L62.9092 13.116L57.8829 11.7692Z"></path>
<path fill="#FF1467" d="M44.6417 19.6687L41.1409 16.8045L54.5336 13.3944L44.6417 19.6687Z"></path>
<path fill="#FF1467" d="M44.0411 20.4708L40.1265 35.08L35.4628 35.8414L40.3835 17.4771L44.0411 20.4708Z"></path>
<path fill="#FF1467" d="M40.2507 36.0765L45.6529 46.405L35.8538 36.7916L40.2507 36.0765Z"></path>
<path fill="#FF1467" d="M47.7542 49.529L52.7907 50.8785L44.9188 53.4533L47.7542 49.529Z"></path>
<path fill="#FF1467" d="M61.1076 53.1069L61.6009 57.9231L56.071 51.7573L61.1076 53.1069Z"></path>
<path fill="#FF1467" d="M74.2758 45.2453L77.7215 48.1002L64.4467 51.479L74.2758 45.2453Z"></path>
<path fill="#FF1467" d="M64.5732 13.4714L58.8469 7.08887L72.721 10.8064L64.5732 13.4714Z"></path>
<path fill="#FF1467" d="M54.4097 51.4026L60.1328 57.787L46.2587 54.0694L54.4097 51.4026Z"></path>
</g>
</g>
<defs>
<clipPath id="clip0_1657_7753">
<rect transform="translate(0 47.2937) rotate(-13.414)" fill="white" height="82.9697" width="60.1629"></rect>
</clipPath>
<clipPath id="clip1_1657_7753">
<rect transform="translate(42.3877) rotate(15)" fill="white" height="53.9127" width="49.9485"></rect>
</clipPath>
</defs>
</svg>
