<svg xmlns="http://www.w3.org/2000/svg" fill="none" viewBox="0 0 52 72" height="72" width="52">
<g clip-path="url(#clip0_1760_9195)">
<path stroke-linejoin="round" stroke-linecap="round" stroke-width="3.90099" stroke="white" d="M49.7303 11.9115C49.7206 11.775 49.6686 11.6482 49.5775 11.5474L40.8523 2.0615C40.8523 2.0615 40.8328 2.04525 40.8231 2.0355C40.8068 2.01924 40.7906 2.00624 40.7743 1.98999C40.7581 1.97698 40.7418 1.96723 40.7256 1.95748C40.7126 1.95098 40.7028 1.94122 40.693 1.93472C40.6865 1.93147 40.68 1.92822 40.6735 1.92497C40.6573 1.91522 40.6378 1.90872 40.6215 1.90221C40.602 1.89571 40.5793 1.88596 40.5598 1.88271C40.5435 1.87946 40.5273 1.87621 40.511 1.87296C40.4882 1.86971 40.4655 1.86646 40.4395 1.86646C40.433 1.86646 40.4265 1.86646 40.4167 1.86646H11.5917C11.4259 1.86646 11.2634 1.93797 11.1528 2.05825L2.42763 11.5441C2.42763 11.5441 2.42113 11.5507 2.42113 11.5539C2.42113 11.5539 2.41462 11.5604 2.41137 11.5604C2.40487 11.5702 2.39837 11.5799 2.39187 11.5897C2.37887 11.6092 2.36586 11.6254 2.35286 11.6449C2.34311 11.6612 2.3366 11.6774 2.3301 11.6904C2.32035 11.7099 2.31385 11.7262 2.30735 11.7457C2.30085 11.762 2.29759 11.7815 2.29109 11.7977C2.28784 11.8172 2.28134 11.8367 2.27809 11.8562C2.27809 11.8757 2.27484 11.892 2.27159 11.9115C2.27159 11.9212 2.27159 11.9342 2.27159 11.944V60.0496C2.27159 60.0496 2.27159 60.0659 2.27159 60.0757C2.25858 60.2317 2.30735 60.3877 2.41462 60.5145C2.47314 60.5828 2.54466 60.6348 2.62268 60.6706L11.1496 69.9419C11.2634 70.0654 11.4226 70.1337 11.5884 70.1337H11.7477H40.407C40.4102 70.1337 40.4167 70.1337 40.42 70.1337C40.459 70.1337 40.5012 70.1272 40.5403 70.1207C40.5533 70.1207 40.5663 70.1109 40.5793 70.1077C40.6085 70.0979 40.641 70.0882 40.667 70.0752C40.6735 70.0752 40.68 70.0719 40.6833 70.0687C40.6963 70.0622 40.706 70.0524 40.7158 70.0459C40.7321 70.0362 40.7483 70.0264 40.7646 70.0134C40.7808 70.0004 40.7971 69.9842 40.8133 69.9679C40.8231 69.9582 40.8328 69.9516 40.8426 69.9419L49.5678 60.456C49.5678 60.456 49.5743 60.4495 49.5775 60.4462C49.5775 60.4462 49.584 60.443 49.584 60.4397C49.5905 60.43 49.597 60.4202 49.6035 60.4105C49.6165 60.391 49.6295 60.3747 49.6426 60.3552C49.6523 60.339 49.6588 60.3227 49.6653 60.3097C49.6751 60.2902 49.6816 60.274 49.6881 60.2545C49.6946 60.2382 49.6978 60.2187 49.7043 60.2024C49.7076 60.1829 49.7141 60.1634 49.7173 60.1439C49.7173 60.1244 49.7206 60.1082 49.7238 60.0887C49.7238 60.0789 49.7238 60.0659 49.7238 60.0561V11.9505C49.7238 11.9505 49.7238 11.9245 49.7206 11.9115H49.7303Z" opacity="0.48"></path>
<path fill="#040A14" d="M49.7303 11.9115C49.7206 11.775 49.6686 11.6482 49.5775 11.5474L40.8523 2.0615C40.8523 2.0615 40.8328 2.04525 40.8231 2.0355C40.8068 2.01924 40.7906 2.00624 40.7743 1.98999C40.7581 1.97698 40.7418 1.96723 40.7256 1.95748C40.7126 1.95098 40.7028 1.94122 40.693 1.93472C40.6865 1.93147 40.68 1.92822 40.6735 1.92497C40.6573 1.91522 40.6378 1.90872 40.6215 1.90221C40.602 1.89571 40.5793 1.88596 40.5598 1.88271C40.5435 1.87946 40.5273 1.87621 40.511 1.87296C40.4882 1.86971 40.4655 1.86646 40.4395 1.86646C40.433 1.86646 40.4265 1.86646 40.4167 1.86646H11.5917C11.4259 1.86646 11.2634 1.93797 11.1528 2.05825L2.42763 11.5441C2.42763 11.5441 2.42113 11.5507 2.42113 11.5539C2.42113 11.5539 2.41462 11.5604 2.41137 11.5604C2.40487 11.5702 2.39837 11.5799 2.39187 11.5897C2.37887 11.6092 2.36586 11.6254 2.35286 11.6449C2.34311 11.6612 2.3366 11.6774 2.3301 11.6904C2.32035 11.7099 2.31385 11.7262 2.30735 11.7457C2.30085 11.762 2.29759 11.7815 2.29109 11.7977C2.28784 11.8172 2.28134 11.8367 2.27809 11.8562C2.27809 11.8757 2.27484 11.892 2.27159 11.9115C2.27159 11.9212 2.27159 11.9342 2.27159 11.944V60.0496C2.27159 60.0496 2.27159 60.0659 2.27159 60.0757C2.25858 60.2317 2.30735 60.3877 2.41462 60.5145C2.47314 60.5828 2.54466 60.6348 2.62268 60.6706L11.1496 69.9419C11.2634 70.0654 11.4226 70.1337 11.5884 70.1337H11.7477H40.407C40.4102 70.1337 40.4167 70.1337 40.42 70.1337C40.459 70.1337 40.5012 70.1272 40.5403 70.1207C40.5533 70.1207 40.5663 70.1109 40.5793 70.1077C40.6085 70.0979 40.641 70.0882 40.667 70.0752C40.6735 70.0752 40.68 70.0719 40.6833 70.0687C40.6963 70.0622 40.706 70.0524 40.7158 70.0459C40.7321 70.0362 40.7483 70.0264 40.7646 70.0134C40.7808 70.0004 40.7971 69.9842 40.8133 69.9679C40.8231 69.9582 40.8328 69.9517 40.8426 69.9419L49.5678 60.456C49.5678 60.456 49.5743 60.4495 49.5775 60.4462C49.5775 60.4462 49.584 60.443 49.584 60.4397C49.5905 60.43 49.597 60.4202 49.6035 60.4105C49.6165 60.391 49.6295 60.3747 49.6426 60.3552C49.6523 60.339 49.6588 60.3227 49.6653 60.3097C49.6751 60.2902 49.6816 60.274 49.6881 60.2545C49.6946 60.2382 49.6978 60.2187 49.7043 60.2024C49.7076 60.1829 49.7141 60.1634 49.7173 60.1439C49.7173 60.1244 49.7206 60.1082 49.7238 60.0887C49.7238 60.0789 49.7238 60.0659 49.7238 60.0561V11.9505C49.7238 11.9505 49.7238 11.9245 49.7206 11.9115H49.7303Z"></path>
<path fill="#00C96B" d="M40.5431 68.5114L37.7344 63.18L43.7809 56.3013L48.2735 60.108L40.5431 68.5114Z"></path>
<path fill="#00C96B" d="M3.46436 58.8142V13.241L7.5994 16.7454V55.2221L3.46436 58.8142Z"></path>
<path fill="#00C96B" d="M11.4322 3.51782L14.2442 8.84917L8.22042 15.7019L3.72778 11.8952L11.4322 3.51782Z"></path>
<path fill="#00C96B" d="M48.2865 11.9112L43.8037 15.7277L37.7344 8.82297L40.5431 3.49487L48.2865 11.9112Z"></path>
<path fill="#00C96B" d="M8.7959 17.7595L13.3438 21.6117L8.7959 33.3797V17.7595Z"></path>
<path fill="#00C96B" d="M13.6104 24.2451V47.7583L9.0625 36.0033L13.6104 24.2451Z"></path>
<path fill="#00C96B" d="M14.1205 20.7016L9.13379 16.4755L14.839 9.98364L17.9208 15.8319L14.1205 20.7016Z"></path>
<path fill="#00C96B" d="M38.3916 24.2451L42.9363 36.0033L38.3916 47.7583V24.2451Z"></path>
<path fill="#00C96B" d="M37.9134 20.7405L34.0547 15.8025L37.1365 9.95752L42.8937 16.5047L37.9134 20.7405Z"></path>
<path fill="#00C96B" d="M33.1706 14.9151L27.4004 9.59351H35.9761L33.1706 14.9151Z"></path>
<path fill="#00C96B" d="M31.7891 15.2662H20.2129L25.9994 9.93164L31.7891 15.2662Z"></path>
<path fill="#00C96B" d="M18.8053 14.9411L15.9868 9.59351H24.6015L18.8053 14.9411Z"></path>
<path fill="#00C96B" d="M14.8066 21.7677L18.9482 16.4624H19.1465H19.2928H33.0535L37.195 21.7677V50.2384L33.0535 55.5405H18.9482L14.8066 50.2384V21.7677Z"></path>
<path fill="#00C96B" d="M31.8408 56.7368L25.9991 62.0747L20.1606 56.7368H31.8408Z"></path>
<path fill="#00C96B" d="M18.8181 57.1304L24.5948 62.4097H16.0972L18.8181 57.1304Z"></path>
<path fill="#00C96B" d="M33.1899 57.1271L35.9759 62.4097H27.4067L33.1899 57.1271Z"></path>
<path fill="#00C96B" d="M34.0547 56.2039L37.8809 51.3049L42.8677 55.5278L37.1365 62.0489L34.0547 56.2039Z"></path>
<path fill="#00C96B" d="M38.6577 50.3914L43.2056 38.6267V54.2469L38.6577 50.3914Z"></path>
<path fill="#00C96B" d="M43.2059 33.3798L38.6775 21.6638L43.2059 17.8083V33.3798Z"></path>
<path fill="#00C96B" d="M36.6067 8.3971H15.3561L12.5474 3.0625H39.4187L36.6067 8.3971Z"></path>
<path fill="#00C96B" d="M8.7959 38.6267L13.2983 50.2711L8.7959 54.1819V38.6267Z"></path>
<path fill="#00C96B" d="M14.0459 51.2073L17.9469 56.207L14.9106 62.1008L9.10791 55.4984L14.0459 51.2073Z"></path>
<path fill="#00C96B" d="M15.4794 63.606H36.6065L39.4184 68.9406H12.7324L15.4794 63.606Z"></path>
<path fill="#00C96B" d="M44.4021 55.2611V16.7909L48.5371 13.2703V58.7623L44.4021 55.2611Z"></path>
<path fill="#00C96B" d="M3.76025 60.1437L8.20413 56.2817L14.3222 63.245L11.5525 68.6154L3.76025 60.1437Z"></path>
<path fill="white" d="M40.5436 68.5116L37.7349 63.1803L43.7814 56.3015L48.274 60.1082L40.5436 68.5116Z" opacity="0.48"></path>
<path fill="white" d="M3.46436 58.8145V13.2412L7.5994 16.7456V55.2223L3.46436 58.8145Z" opacity="0.9"></path>
<path fill="white" d="M11.4322 3.51782L14.2442 8.84917L8.22042 15.7019L3.72778 11.8952L11.4322 3.51782Z" opacity="0.6"></path>
<path fill="white" d="M48.287 11.9115L43.8041 15.728L37.7349 8.82321L40.5436 3.49512L48.287 11.9115Z" opacity="0.48"></path>
<path fill="white" d="M8.79614 17.7595L13.344 21.6117L8.79614 33.3797V17.7595Z" opacity="0.6"></path>
<path fill="white" d="M13.6104 24.2451V47.7583L9.0625 36.0033L13.6104 24.2451Z" opacity="0.9"></path>
<path fill="white" d="M14.121 20.7016L9.13428 16.4755L14.8395 9.98364L17.9212 15.8319L14.121 20.7016Z" opacity="0.9"></path>
<path fill="white" d="M38.3916 24.2451L42.9363 36.0033L38.3916 47.7583V24.2451Z" opacity="0.1"></path>
<path fill="white" d="M37.9134 20.7405L34.0547 15.8025L37.1365 9.95752L42.8937 16.5047L37.9134 20.7405Z" opacity="0.3"></path>
<path fill="white" d="M33.1706 14.9153L27.4004 9.59375H35.9761L33.1706 14.9153Z" opacity="0.5"></path>
<path fill="white" d="M31.7891 15.2662H20.2129L25.9994 9.93164L31.7891 15.2662Z" opacity="0.4"></path>
<path fill="white" d="M18.8053 14.9414L15.9868 9.59375H24.6015L18.8053 14.9414Z" opacity="0.6"></path>
<path fill="white" d="M14.8066 21.768L18.9482 16.4626H19.1465H19.2928H33.0535L37.195 21.768V50.2387L33.0535 55.5408H18.9482L14.8066 50.2387V21.768Z" opacity="0.6"></path>
<path fill="white" d="M31.8408 56.7371L25.9991 62.0749L20.1606 56.7371H31.8408Z" opacity="0.4"></path>
<path fill="white" d="M18.8181 57.1304L24.5948 62.4097H16.0972L18.8181 57.1304Z" opacity="0.6"></path>
<path fill="white" d="M33.1902 57.1271L35.9761 62.4097H27.407L33.1902 57.1271Z" opacity="0.5"></path>
<path fill="white" d="M34.0547 56.2039L37.8809 51.3049L42.8677 55.5278L37.1365 62.0489L34.0547 56.2039Z" opacity="0.3"></path>
<path fill="white" d="M38.6582 50.3914L43.2061 38.6267V54.2469L38.6582 50.3914Z" opacity="0.4"></path>
<path fill="white" d="M43.2059 33.38L38.6775 21.6641L43.2059 17.8086V33.38Z" opacity="0.4"></path>
<path fill="white" d="M36.6069 8.3971H15.3563L12.5476 3.0625H39.4189L36.6069 8.3971Z" opacity="0.8"></path>
<path fill="white" d="M8.79614 38.6267L13.2985 50.2711L8.79614 54.1819V38.6267Z" opacity="0.6"></path>
<path fill="white" d="M14.0462 51.2073L17.9471 56.207L14.9109 62.1008L9.10815 55.4984L14.0462 51.2073Z" opacity="0.9"></path>
<path fill="white" d="M15.4799 63.6061H36.6069L39.4189 68.9407H12.7329L15.4799 63.6061Z" opacity="0.8"></path>
<path fill="white" d="M44.4021 55.2611V16.7909L48.5371 13.2703V58.7623L44.4021 55.2611Z" opacity="0.1"></path>
<path fill="white" d="M3.76025 60.1437L8.20413 56.2817L14.3222 63.245L11.5525 68.6154L3.76025 60.1437Z" opacity="0.6"></path>
<g opacity="0.4" style="mix-blend-mode:overlay">
<path fill="#00C96B" d="M40.5431 68.5114L37.7344 63.18L43.7809 56.3013L48.2735 60.108L40.5431 68.5114Z"></path>
<path fill="#00C96B" d="M3.46436 58.8142V13.241L7.5994 16.7454V55.2221L3.46436 58.8142Z"></path>
<path fill="#00C96B" d="M11.4322 3.51782L14.2442 8.84917L8.22042 15.7019L3.72778 11.8952L11.4322 3.51782Z"></path>
<path fill="#00C96B" d="M48.2865 11.9112L43.8037 15.7277L37.7344 8.82297L40.5431 3.49487L48.2865 11.9112Z"></path>
<path fill="#00C96B" d="M8.7959 17.7595L13.3438 21.6117L8.7959 33.3797V17.7595Z"></path>
<path fill="#00C96B" d="M13.6104 24.2451V47.7583L9.0625 36.0033L13.6104 24.2451Z"></path>
<path fill="#00C96B" d="M14.1205 20.7016L9.13379 16.4755L14.839 9.98364L17.9208 15.8319L14.1205 20.7016Z"></path>
<path fill="#00C96B" d="M38.3916 24.2451L42.9363 36.0033L38.3916 47.7583V24.2451Z"></path>
<path fill="#00C96B" d="M37.9134 20.7405L34.0547 15.8025L37.1365 9.95752L42.8937 16.5047L37.9134 20.7405Z"></path>
<path fill="#00C96B" d="M33.1706 14.9151L27.4004 9.59351H35.9761L33.1706 14.9151Z"></path>
<path fill="#00C96B" d="M31.7891 15.2662H20.2129L25.9994 9.93164L31.7891 15.2662Z"></path>
<path fill="#00C96B" d="M18.8053 14.9411L15.9868 9.59351H24.6015L18.8053 14.9411Z"></path>
<path fill="#00C96B" d="M31.8408 56.7368L25.9991 62.0747L20.1606 56.7368H31.8408Z"></path>
<path fill="#00C96B" d="M18.8181 57.1304L24.5948 62.4097H16.0972L18.8181 57.1304Z"></path>
<path fill="#00C96B" d="M33.1899 57.1271L35.9759 62.4097H27.4067L33.1899 57.1271Z"></path>
<path fill="#00C96B" d="M34.0547 56.2039L37.8809 51.3049L42.8677 55.5278L37.1365 62.0489L34.0547 56.2039Z"></path>
<path fill="#00C96B" d="M38.6577 50.3914L43.2056 38.6267V54.2469L38.6577 50.3914Z"></path>
<path fill="#00C96B" d="M43.2059 33.3798L38.6775 21.6638L43.2059 17.8083V33.3798Z"></path>
<path fill="#00C96B" d="M36.6067 8.3971H15.3561L12.5474 3.0625H39.4187L36.6067 8.3971Z"></path>
<path fill="#00C96B" d="M8.7959 38.6267L13.2983 50.2711L8.7959 54.1819V38.6267Z"></path>
<path fill="#00C96B" d="M14.0459 51.2073L17.9469 56.207L14.9106 62.1008L9.10791 55.4984L14.0459 51.2073Z"></path>
<path fill="#00C96B" d="M15.4794 63.606H36.6065L39.4184 68.9406H12.7324L15.4794 63.606Z"></path>
<path fill="#00C96B" d="M44.4021 55.2611V16.7909L48.5371 13.2703V58.7623L44.4021 55.2611Z"></path>
<path fill="#00C96B" d="M3.76025 60.1437L8.20413 56.2817L14.3222 63.245L11.5525 68.6154L3.76025 60.1437Z"></path>
</g>
</g>
<defs>
<clipPath id="clip0_1760_9195">
<rect transform="translate(0.769531 0.366455)" fill="white" height="71.2672" width="50.4608"></rect>
</clipPath>
</defs>
</svg>
