<svg xmlns="http://www.w3.org/2000/svg" fill="none" viewBox="0 0 41 42" height="42" width="41">
<g id="Group">
<path fill="#F5F5F5" d="M38.511 20.988H34.1277C32.8185 20.988 31.7577 22.0567 31.7577 23.3755V29.7847C31.7577 31.1035 30.6969 32.1722 29.3878 32.1722H11.9493C10.6401 32.1722 9.57935 33.2408 9.57935 34.5597V38.9754C9.57935 40.2943 10.6401 41.3629 11.9493 41.3629H30.3971C31.7063 41.3629 32.752 40.2943 32.752 38.9754V35.4326C32.752 34.1138 33.8128 33.1783 35.122 33.1783H38.5101C39.8193 33.1783 40.8801 32.1096 40.8801 30.7908V23.3478C40.8801 22.029 39.8193 20.988 38.5101 20.988H38.511Z" id="Vector"></path>
<path fill="#F5F5F5" d="M9.57662 12.2154C9.57662 10.8966 10.6374 9.82792 11.9466 9.82792H29.3744C30.6835 9.82792 31.7443 8.75928 31.7443 7.44045V3.02468C31.7443 1.70585 30.6835 0.637207 29.3744 0.637207H10.9363C9.62717 0.637207 8.56637 1.70585 8.56637 3.02468V6.4272C8.56637 7.74603 7.50557 8.81468 6.19642 8.81468H2.82332C1.51417 8.81468 0.453369 9.88332 0.453369 11.2022V18.6532C0.453369 19.972 1.51861 20.9871 2.82776 20.9871H7.2111C8.52025 20.9871 9.58105 19.9184 9.58105 18.5996L9.57662 12.2163V12.2154Z" id="Vector_2"></path>
<path fill="#F5F5F5" d="M18.6022 16.3459H22.8126C24.1847 16.3459 25.2978 17.4682 25.2978 18.8496V23.0911C25.2978 24.4734 24.1838 25.5947 22.8126 25.5947H18.6022C17.2301 25.5947 16.1169 24.4725 16.1169 23.0911V18.8496C16.1169 17.4673 17.231 16.3459 18.6022 16.3459Z" id="Vector_3"></path>
</g>
</svg>
