<svg xmlns="http://www.w3.org/2000/svg" fill="none" viewBox="0 0 61 66" height="66" width="61">
<g id="Group">
<g id="Objects">
<path stroke-linejoin="round" stroke-linecap="round" stroke-width="3.90099" stroke="white" d="M59.0285 20.3526C59.0285 20.3363 59.0285 20.3168 59.022 20.3006C59.022 20.2778 59.0187 20.2583 59.0155 20.2355C59.0155 20.2193 59.0057 20.2063 59.0025 20.19C58.996 20.1673 58.9895 20.1445 58.9797 20.1218C58.9797 20.1185 58.9797 20.112 58.9765 20.1088C58.97 20.099 58.9635 20.0892 58.9602 20.0795C58.9505 20.06 58.9375 20.0405 58.9245 20.021C58.9147 20.0047 58.9017 19.9885 58.8887 19.9755C58.8822 19.9657 58.8757 19.956 58.866 19.9462L42.4168 2.05694C42.2998 1.93016 42.1372 1.85864 41.9649 1.85864H18.7021C18.6793 1.85864 18.6566 1.86189 18.6305 1.86514C18.6273 1.86514 18.6208 1.86514 18.6175 1.86514C18.4778 1.88465 18.3445 1.94967 18.2469 2.05694L1.98634 19.7382C1.85631 19.8129 1.76854 19.9267 1.71978 20.0535C1.71652 20.06 1.71327 20.0665 1.71002 20.073C1.70352 20.086 1.69702 20.0958 1.69052 20.1055C1.69052 20.112 1.69052 20.1153 1.68402 20.1218C1.67426 20.1413 1.66776 20.164 1.66451 20.1835C1.65801 20.1998 1.65476 20.216 1.64826 20.2355C1.64501 20.255 1.64176 20.2745 1.64176 20.2941C1.64176 20.3136 1.63525 20.3331 1.63525 20.3526C1.63525 20.3526 1.63525 20.3558 1.63525 20.3591V45.6505C1.63525 45.6505 1.63525 45.6537 1.63525 45.657C1.63525 45.6732 1.63525 45.6927 1.64176 45.709C1.64176 45.7317 1.64501 45.7512 1.64826 45.774C1.64826 45.7902 1.65801 45.8032 1.66126 45.8195C1.66776 45.8423 1.67426 45.865 1.68402 45.8878C1.68402 45.891 1.68402 45.8975 1.68727 45.9008C1.68727 45.9073 1.69377 45.9105 1.69702 45.917C1.71652 45.9593 1.74253 46.0015 1.77504 46.0373C1.78154 46.0438 1.78479 46.0503 1.79129 46.0568C1.79129 46.0568 1.79129 46.0601 1.79454 46.0633L18.2437 63.9461C18.2437 63.9461 18.2535 63.9526 18.2567 63.9558C18.273 63.9753 18.2925 63.9916 18.3152 64.0046C18.3282 64.0143 18.3412 64.0274 18.3542 64.0339C18.3737 64.0469 18.3932 64.0566 18.416 64.0696C18.4322 64.0794 18.4485 64.0891 18.468 64.0956C18.4745 64.0956 18.4778 64.1021 18.481 64.1021C18.5005 64.1086 18.5233 64.1151 18.5428 64.1184C18.5558 64.1216 18.5688 64.1249 18.5818 64.1281C18.6208 64.1346 18.6631 64.1411 18.7021 64.1411H41.9617C42.0007 64.1411 42.043 64.1379 42.082 64.1281C42.095 64.1281 42.108 64.1216 42.121 64.1184C42.1405 64.1119 42.1632 64.1086 42.1827 64.1021C42.1892 64.1021 42.1925 64.0956 42.1958 64.0956C42.212 64.0891 42.2283 64.0794 42.2478 64.0696C42.2673 64.0599 42.29 64.0469 42.3095 64.0339C42.3225 64.0241 42.3355 64.0143 42.3485 64.0046C42.368 63.9883 42.3875 63.9721 42.4071 63.9558C42.4103 63.9526 42.4168 63.9493 42.4201 63.9461L58.6807 46.2681C58.8107 46.1933 58.8985 46.0796 58.9472 45.9528C58.9992 45.8618 59.0318 45.7545 59.0318 45.6472V20.3591C59.0318 20.3591 59.0318 20.3558 59.0318 20.3526H59.0285Z" opacity="0.48" id="Vector"></path>
<path fill="#040A14" d="M59.0285 20.3526C59.0285 20.3363 59.0285 20.3168 59.022 20.3006C59.022 20.2778 59.0187 20.2583 59.0155 20.2355C59.0155 20.2193 59.0057 20.2063 59.0025 20.19C58.996 20.1673 58.9895 20.1445 58.9797 20.1218C58.9797 20.1185 58.9797 20.112 58.9765 20.1088C58.97 20.099 58.9635 20.0892 58.9602 20.0795C58.9505 20.06 58.9375 20.0405 58.9245 20.021C58.9147 20.0047 58.9017 19.9885 58.8887 19.9755C58.8822 19.9657 58.8757 19.956 58.866 19.9462L42.4168 2.05694C42.2998 1.93016 42.1372 1.85864 41.9649 1.85864H18.7021C18.6793 1.85864 18.6566 1.86189 18.6305 1.86514C18.6273 1.86514 18.6208 1.86514 18.6175 1.86514C18.4778 1.88465 18.3445 1.94967 18.247 2.05694L1.98634 19.7382C1.85631 19.8129 1.76854 19.9267 1.71978 20.0535C1.71652 20.06 1.71327 20.0665 1.71002 20.073C1.70352 20.086 1.69702 20.0958 1.69052 20.1055C1.69052 20.112 1.69052 20.1153 1.68402 20.1218C1.67426 20.1413 1.66776 20.164 1.66451 20.1835C1.65801 20.1998 1.65476 20.216 1.64826 20.2355C1.64501 20.255 1.64176 20.2745 1.64176 20.2941C1.64176 20.3136 1.63525 20.3331 1.63525 20.3526C1.63525 20.3526 1.63525 20.3558 1.63525 20.3591V45.6505C1.63525 45.6505 1.63525 45.6537 1.63525 45.657C1.63525 45.6732 1.63525 45.6927 1.64176 45.709C1.64176 45.7317 1.64501 45.7512 1.64826 45.774C1.64826 45.7902 1.65801 45.8032 1.66126 45.8195C1.66776 45.8423 1.67426 45.865 1.68402 45.8878C1.68402 45.891 1.68402 45.8975 1.68727 45.9008C1.68727 45.9073 1.69377 45.9105 1.69702 45.917C1.71652 45.9593 1.74253 46.0015 1.77504 46.0373C1.78154 46.0438 1.78479 46.0503 1.79129 46.0568C1.79129 46.0568 1.79129 46.0601 1.79454 46.0633L18.2437 63.9461C18.2437 63.9461 18.2535 63.9526 18.2567 63.9558C18.273 63.9753 18.2925 63.9916 18.3152 64.0046C18.3282 64.0144 18.3412 64.0274 18.3542 64.0339C18.3737 64.0469 18.3932 64.0566 18.416 64.0696C18.4322 64.0794 18.4485 64.0891 18.468 64.0956C18.4745 64.0956 18.4778 64.1021 18.481 64.1021C18.5005 64.1086 18.5233 64.1151 18.5428 64.1184C18.5558 64.1216 18.5688 64.1249 18.5818 64.1281C18.6208 64.1346 18.6631 64.1411 18.7021 64.1411H41.9617C42.0007 64.1411 42.043 64.1379 42.082 64.1281C42.095 64.1281 42.108 64.1216 42.121 64.1184C42.1405 64.1119 42.1632 64.1086 42.1827 64.1021C42.1892 64.1021 42.1925 64.0956 42.1958 64.0956C42.212 64.0891 42.2283 64.0794 42.2478 64.0696C42.2673 64.0599 42.29 64.0469 42.3095 64.0339C42.3225 64.0241 42.3355 64.0144 42.3485 64.0046C42.368 63.9883 42.3875 63.9721 42.4071 63.9558C42.4103 63.9526 42.4168 63.9493 42.4201 63.9461L58.6807 46.2681C58.8107 46.1933 58.8985 46.0796 58.9472 45.9528C58.9992 45.8618 59.0318 45.7545 59.0318 45.6472V20.3591C59.0318 20.3591 59.0318 20.3558 59.0318 20.3526H59.0285Z" id="Vector_2"></path>
<g id="Group_2">
<path fill="#FF1467" d="M42.1861 62.3826L40.0308 56.7261L55.2218 48.209L42.1861 62.3826Z" id="Vector_3"></path>
<path fill="#FF1467" d="M5.30225 48.0596L20.6364 56.7198L18.4811 62.3827L5.30225 48.0596Z" id="Vector_4"></path>
<path fill="#FF1467" d="M18.4909 3.61108L20.643 9.27401L5.44214 17.7977L18.4909 3.61108Z" id="Vector_5"></path>
<path fill="#FF1467" d="M55.3617 17.9504L40.0601 9.30642L42.2121 3.65649L55.3617 17.9504Z" id="Vector_6"></path>
<path fill="#FF1467" d="M51.2657 32.1304L42.8525 28.0409L51.2657 24.2537V32.1304Z" id="Vector_7"></path>
<path fill="#FF1467" d="M26.5039 45.8845H34.1596L30.3334 54.548L26.5039 45.8845Z" id="Vector_8"></path>
<path fill="#FF1467" d="M34.1596 20.1219H26.5039L30.3334 11.4617L34.1596 20.1219Z" id="Vector_9"></path>
<path fill="#FF1467" d="M36.094 21.0126L44.5429 17.583L41.4611 26.8478L36.094 21.0126Z" id="Vector_10"></path>
<path fill="#FF1467" d="M19.2026 26.8478L16.1208 17.583L24.5697 21.0126L19.2026 26.8478Z" id="Vector_11"></path>
<path fill="#FF1467" d="M18.4353 36.8994L10.4155 33.0049L18.4353 29.1072V36.8994Z" id="Vector_12"></path>
<path fill="#FF1467" d="M24.5697 44.9939L16.1208 48.4235L19.2026 39.1587L24.5697 44.9939Z" id="Vector_13"></path>
<path fill="#FF1467" d="M41.4611 39.1587L44.5429 48.4235L36.094 44.9939L41.4611 39.1587Z" id="Vector_14"></path>
<path fill="#FF1467" d="M42.2317 29.1072L50.2482 33.0049L42.2317 36.8994V29.1072Z" id="Vector_15"></path>
<path fill="#FF1467" d="M42.8037 26.7113L45.827 17.6252L50.8495 23.0899L42.8037 26.7113Z" id="Vector_16"></path>
<path fill="#FF1467" d="M36.1064 19.6766L39.5068 10.7563L44.5586 16.247L36.1064 19.6766Z" id="Vector_17"></path>
<path fill="#FF1467" d="M35.0304 19.0459L31.1165 10.1907H38.4048L35.0304 19.0459Z" id="Vector_18"></path>
<path fill="#FF1467" d="M25.6556 18.9969L22.3105 10.1904H29.5469L25.6556 18.9969Z" id="Vector_19"></path>
<path fill="#FF1467" d="M24.6056 19.6961L16.1047 16.2469L21.1923 10.7173L24.6056 19.6961Z" id="Vector_20"></path>
<path fill="#FF1467" d="M14.8366 17.6252L17.8664 26.734L9.80762 23.0964L14.8366 17.6252Z" id="Vector_21"></path>
<path fill="#FF1467" d="M17.7921 28.0506L9.39844 32.1304V24.2634L17.7921 28.0506Z" id="Vector_22"></path>
<path fill="#FF1467" d="M9.39844 33.8794L17.8116 37.9657L9.39844 41.7561V33.8794Z" id="Vector_23"></path>
<path fill="#FF1467" d="M17.8602 39.2952L14.837 48.3812L9.81445 42.9198L17.8602 39.2952Z" id="Vector_24"></path>
<path fill="#FF1467" d="M24.6024 46.3105L21.1858 55.2828L16.1047 49.7597L24.6024 46.3105Z" id="Vector_25"></path>
<path fill="#FF1467" d="M25.6556 47.0093L29.5469 55.8158H22.3008L25.6556 47.0093Z" id="Vector_26"></path>
<path fill="#FF1467" d="M35.0077 47.0095L38.3658 55.816H31.1165L35.0077 47.0095Z" id="Vector_27"></path>
<path fill="#FF1467" d="M36.0615 46.3105L44.5592 49.7597L39.4781 55.2828L36.0615 46.3105Z" id="Vector_28"></path>
<path fill="#FF1467" d="M45.8271 48.3813L42.8103 39.3115L50.8008 42.9752L45.8271 48.3813Z" id="Vector_29"></path>
<path fill="#FF1467" d="M42.8423 37.9722L51.2652 33.8794V41.8342L42.8423 37.9722Z" id="Vector_30"></path>
<path fill="#FF1467" d="M52.4976 23.6976L57.7964 21.3115V44.8312L52.4976 42.3996V23.6976Z" id="Vector_31"></path>
<path fill="#FF1467" d="M52.0326 22.5566L42.3257 12.0012L57.0291 20.3071L52.0326 22.5566Z" id="Vector_32"></path>
<path fill="#FF1467" d="M38.8733 8.95875H32.4204L41.0058 3.36084L38.8733 8.95875Z" id="Vector_33"></path>
<path fill="#FF1467" d="M21.8417 8.95882L19.7319 3.40967L28.2426 8.95882H21.8417Z" id="Vector_34"></path>
<path fill="#FF1467" d="M8.6245 22.56L3.55322 20.2714L18.3802 11.9558L8.6245 22.56Z" id="Vector_35"></path>
<path fill="#FF1467" d="M8.16603 23.7041V42.3086L2.86719 44.6979V21.3115L8.16603 23.7041Z" id="Vector_36"></path>
<path fill="#FF1467" d="M8.63103 43.4529L18.338 54.005L3.63452 45.7024L8.63103 43.4529Z" id="Vector_37"></path>
<path fill="#FF1467" d="M21.8293 57.048H28.2431L19.7097 62.6134L21.8293 57.048Z" id="Vector_38"></path>
<path fill="#FF1467" d="M38.8343 57.048L40.9538 62.6134L32.4204 57.048H38.8343Z" id="Vector_39"></path>
<path fill="#FF1467" d="M51.9776 43.5149L56.9807 45.81L42.2837 54.0508L51.9776 43.5149Z" id="Vector_40"></path>
<path fill="#FF1467" d="M30.3338 8.85128L21.498 3.09082H39.1663L30.3338 8.85128Z" id="Vector_41"></path>
<path fill="#FF1467" d="M30.3338 57.1553L39.1663 62.919H21.498L30.3338 57.1553Z" id="Vector_42"></path>
<path fill="#FF1467" d="M34.735 21.354H34.3677H25.9286L19.6675 28.1645V37.8454L25.9286 44.6526H34.735L40.9994 37.8454V28.1645L34.735 21.354Z" id="Vector_43"></path>
</g>
<g id="Group_3">
<path fill="white" d="M42.1861 62.3826L40.0308 56.7261L55.2218 48.209L42.1861 62.3826Z" opacity="0.28" id="Vector_44"></path>
<path fill="white" d="M5.30225 48.0596L20.6364 56.7198L18.4811 62.3827L5.30225 48.0596Z" opacity="0.8" id="Vector_45"></path>
<path fill="white" d="M18.4909 3.61108L20.643 9.27401L5.44214 17.7977L18.4909 3.61108Z" opacity="0.8" id="Vector_46"></path>
<path fill="white" d="M55.3617 17.9504L40.0601 9.30642L42.2121 3.65649L55.3617 17.9504Z" opacity="0.28" id="Vector_47"></path>
<path fill="white" d="M51.2657 32.1304L42.8525 28.0409L51.2657 24.2537V32.1304Z" opacity="0.1" id="Vector_48"></path>
<path fill="white" d="M26.5039 45.8845H34.1596L30.3334 54.548L26.5039 45.8845Z" opacity="0.72" id="Vector_49"></path>
<path fill="white" d="M34.1596 20.1219H26.5039L30.3334 11.4617L34.1596 20.1219Z" opacity="0.72" id="Vector_50"></path>
<path fill="white" d="M36.094 21.0126L44.5429 17.583L41.4611 26.8478L36.094 21.0126Z" opacity="0.6" id="Vector_51"></path>
<path fill="white" d="M34.735 44.6526H25.9286L19.6675 37.8454V28.1645L25.9286 21.354H34.7513L40.9994 28.1645V37.8454L34.735 44.6526Z" opacity="0.6" id="Vector_52"></path>
<path fill="white" d="M19.2026 26.8478L16.1208 17.583L24.5697 21.0126L19.2026 26.8478Z" opacity="0.8" id="Vector_53"></path>
<path fill="white" d="M18.4353 36.8994L10.4155 33.0049L18.4353 29.1072V36.8994Z" opacity="0.8" id="Vector_54"></path>
<path fill="white" d="M24.5697 44.9939L16.1208 48.4235L19.2026 39.1587L24.5697 44.9939Z" opacity="0.8" id="Vector_55"></path>
<path fill="white" d="M41.4611 39.1587L44.5429 48.4235L36.094 44.9939L41.4611 39.1587Z" opacity="0.6" id="Vector_56"></path>
<path fill="white" d="M42.2317 29.1072L50.2482 33.0049L42.2317 36.8994V29.1072Z" opacity="0.4" id="Vector_57"></path>
<path fill="white" d="M42.8037 26.7113L45.827 17.6252L50.8495 23.0899L42.8037 26.7113Z" opacity="0.4" id="Vector_58"></path>
<path fill="white" d="M36.1064 19.6766L39.5068 10.7563L44.5586 16.247L36.1064 19.6766Z" opacity="0.28" id="Vector_59"></path>
<path fill="white" d="M35.0304 19.0459L31.1165 10.1907H38.4048L35.0304 19.0459Z" opacity="0.6" id="Vector_60"></path>
<path fill="white" d="M25.6556 18.9969L22.3105 10.1904H29.5469L25.6556 18.9969Z" opacity="0.4" id="Vector_61"></path>
<path fill="white" d="M24.6056 19.6961L16.1047 16.2469L21.1923 10.7173L24.6056 19.6961Z" opacity="0.6" id="Vector_62"></path>
<path fill="white" d="M14.8366 17.6252L17.8664 26.734L9.80762 23.0964L14.8366 17.6252Z" opacity="0.28" id="Vector_63"></path>
<path fill="white" d="M17.7921 28.0506L9.39844 32.1304V24.2634L17.7921 28.0506Z" opacity="0.6" id="Vector_64"></path>
<path fill="white" d="M9.39844 33.8794L17.8116 37.9657L9.39844 41.7561V33.8794Z" opacity="0.6" id="Vector_65"></path>
<path fill="white" d="M17.8602 39.2952L14.837 48.3812L9.81445 42.9198L17.8602 39.2952Z" opacity="0.28" id="Vector_66"></path>
<path fill="white" d="M24.6024 46.3105L21.1858 55.2828L16.1047 49.7597L24.6024 46.3105Z" opacity="0.6" id="Vector_67"></path>
<path fill="white" d="M25.6556 47.0093L29.5469 55.8158H22.3008L25.6556 47.0093Z" opacity="0.4" id="Vector_68"></path>
<path fill="white" d="M35.0077 47.0095L38.3658 55.816H31.1165L35.0077 47.0095Z" opacity="0.6" id="Vector_69"></path>
<path fill="white" d="M36.0615 46.3105L44.5592 49.7597L39.4781 55.2828L36.0615 46.3105Z" opacity="0.28" id="Vector_70"></path>
<path fill="white" d="M45.8271 48.3813L42.8103 39.3115L50.8008 42.9752L45.8271 48.3813Z" opacity="0.4" id="Vector_71"></path>
<path fill="white" d="M42.8423 37.9722L51.2652 33.8794V41.8342L42.8423 37.9722Z" opacity="0.1" id="Vector_72"></path>
<path fill="white" d="M52.4976 23.6976L57.7964 21.3115V44.8312L52.4976 42.3996V23.6976Z" opacity="0.4" id="Vector_73"></path>
<path fill="white" d="M52.0326 22.5566L42.3257 12.0012L57.0291 20.3071L52.0326 22.5566Z" opacity="0.28" id="Vector_74"></path>
<path fill="white" d="M38.8733 8.95875H32.4204L41.0058 3.36084L38.8733 8.95875Z" opacity="0.4" id="Vector_75"></path>
<path fill="white" d="M21.8417 8.95882L19.7319 3.40967L28.2426 8.95882H21.8417Z" opacity="0.6" id="Vector_76"></path>
<path fill="white" d="M8.6245 22.56L3.55322 20.2714L18.3802 11.9558L8.6245 22.56Z" opacity="0.4" id="Vector_77"></path>
<path fill="white" d="M8.16603 23.7041V42.3086L2.86719 44.6979V21.3115L8.16603 23.7041Z" opacity="0.8" id="Vector_78"></path>
<path fill="white" d="M8.63103 43.4529L18.338 54.005L3.63452 45.7024L8.63103 43.4529Z" opacity="0.4" id="Vector_79"></path>
<path fill="white" d="M21.8293 57.048H28.2431L19.7097 62.6134L21.8293 57.048Z" opacity="0.6" id="Vector_80"></path>
<path fill="white" d="M38.8343 57.048L40.9538 62.6134L32.4204 57.048H38.8343Z" opacity="0.4" id="Vector_81"></path>
<path fill="white" d="M51.9776 43.5149L56.9807 45.81L42.2837 54.0508L51.9776 43.5149Z" opacity="0.28" id="Vector_82"></path>
<path fill="white" d="M30.3338 8.85128L21.498 3.09082H39.1663L30.3338 8.85128Z" opacity="0.8" id="Vector_83"></path>
<path fill="white" d="M30.3338 57.1553L39.1663 62.919H21.498L30.3338 57.1553Z" opacity="0.8" id="Vector_84"></path>
</g>
<g opacity="0.4" style="mix-blend-mode:overlay" id="Group_4">
<path fill="#FF1467" d="M42.1861 62.3826L40.0308 56.7261L55.2218 48.209L42.1861 62.3826Z" id="Vector_85"></path>
<path fill="#FF1467" d="M5.30225 48.0596L20.6364 56.7198L18.4811 62.3827L5.30225 48.0596Z" id="Vector_86"></path>
<path fill="#FF1467" d="M18.4909 3.61108L20.643 9.27401L5.44214 17.7977L18.4909 3.61108Z" id="Vector_87"></path>
<path fill="#FF1467" d="M55.3617 17.9504L40.0601 9.30642L42.2121 3.65649L55.3617 17.9504Z" id="Vector_88"></path>
<path fill="#FF1467" d="M51.2657 32.1304L42.8525 28.0409L51.2657 24.2537V32.1304Z" id="Vector_89"></path>
<path fill="#FF1467" d="M26.5039 45.8845H34.1596L30.3334 54.548L26.5039 45.8845Z" id="Vector_90"></path>
<path fill="#FF1467" d="M34.1596 20.1219H26.5039L30.3334 11.4617L34.1596 20.1219Z" id="Vector_91"></path>
<path fill="#FF1467" d="M36.094 21.0126L44.5429 17.583L41.4611 26.8478L36.094 21.0126Z" id="Vector_92"></path>
<path fill="#FF1467" d="M19.2026 26.8478L16.1208 17.583L24.5697 21.0126L19.2026 26.8478Z" id="Vector_93"></path>
<path fill="#FF1467" d="M18.4353 36.8994L10.4155 33.0049L18.4353 29.1072V36.8994Z" id="Vector_94"></path>
<path fill="#FF1467" d="M24.5697 44.9939L16.1208 48.4235L19.2026 39.1587L24.5697 44.9939Z" id="Vector_95"></path>
<path fill="#FF1467" d="M41.4611 39.1587L44.5429 48.4235L36.094 44.9939L41.4611 39.1587Z" id="Vector_96"></path>
<path fill="#FF1467" d="M42.2317 29.1072L50.2482 33.0049L42.2317 36.8994V29.1072Z" id="Vector_97"></path>
<path fill="#FF1467" d="M42.8037 26.7113L45.827 17.6252L50.8495 23.0899L42.8037 26.7113Z" id="Vector_98"></path>
<path fill="#FF1467" d="M36.1064 19.6766L39.5068 10.7563L44.5586 16.247L36.1064 19.6766Z" id="Vector_99"></path>
<path fill="#FF1467" d="M35.0304 19.0459L31.1165 10.1907H38.4048L35.0304 19.0459Z" id="Vector_100"></path>
<path fill="#FF1467" d="M25.6556 18.9969L22.3105 10.1904H29.5469L25.6556 18.9969Z" id="Vector_101"></path>
<path fill="#FF1467" d="M24.6056 19.6961L16.1047 16.2469L21.1923 10.7173L24.6056 19.6961Z" id="Vector_102"></path>
<path fill="#FF1467" d="M14.8366 17.6252L17.8664 26.734L9.80762 23.0964L14.8366 17.6252Z" id="Vector_103"></path>
<path fill="#FF1467" d="M17.7921 28.0506L9.39844 32.1304V24.2634L17.7921 28.0506Z" id="Vector_104"></path>
<path fill="#FF1467" d="M9.39844 33.8794L17.8116 37.9657L9.39844 41.7561V33.8794Z" id="Vector_105"></path>
<path fill="#FF1467" d="M17.8602 39.2952L14.837 48.3812L9.81445 42.9198L17.8602 39.2952Z" id="Vector_106"></path>
<path fill="#FF1467" d="M24.6024 46.3105L21.1858 55.2828L16.1047 49.7597L24.6024 46.3105Z" id="Vector_107"></path>
<path fill="#FF1467" d="M25.6556 47.0093L29.5469 55.8158H22.3008L25.6556 47.0093Z" id="Vector_108"></path>
<path fill="#FF1467" d="M35.0077 47.0095L38.3658 55.816H31.1165L35.0077 47.0095Z" id="Vector_109"></path>
<path fill="#FF1467" d="M36.0615 46.3105L44.5592 49.7597L39.4781 55.2828L36.0615 46.3105Z" id="Vector_110"></path>
<path fill="#FF1467" d="M45.8271 48.3813L42.8103 39.3115L50.8008 42.9752L45.8271 48.3813Z" id="Vector_111"></path>
<path fill="#FF1467" d="M42.8423 37.9722L51.2652 33.8794V41.8342L42.8423 37.9722Z" id="Vector_112"></path>
<path fill="#FF1467" d="M52.4976 23.6976L57.7964 21.3115V44.8312L52.4976 42.3996V23.6976Z" id="Vector_113"></path>
<path fill="#FF1467" d="M52.0326 22.5566L42.3257 12.0012L57.0291 20.3071L52.0326 22.5566Z" id="Vector_114"></path>
<path fill="#FF1467" d="M38.8733 8.95875H32.4204L41.0058 3.36084L38.8733 8.95875Z" id="Vector_115"></path>
<path fill="#FF1467" d="M21.8417 8.95882L19.7319 3.40967L28.2426 8.95882H21.8417Z" id="Vector_116"></path>
<path fill="#FF1467" d="M8.6245 22.56L3.55322 20.2714L18.3802 11.9558L8.6245 22.56Z" id="Vector_117"></path>
<path fill="#FF1467" d="M8.16603 23.7041V42.3086L2.86719 44.6979V21.3115L8.16603 23.7041Z" id="Vector_118"></path>
<path fill="#FF1467" d="M8.63103 43.4529L18.338 54.005L3.63452 45.7024L8.63103 43.4529Z" id="Vector_119"></path>
<path fill="#FF1467" d="M21.8293 57.048H28.2431L19.7097 62.6134L21.8293 57.048Z" id="Vector_120"></path>
<path fill="#FF1467" d="M38.8343 57.048L40.9538 62.6134L32.4204 57.048H38.8343Z" id="Vector_121"></path>
<path fill="#FF1467" d="M51.9776 43.5149L56.9807 45.81L42.2837 54.0508L51.9776 43.5149Z" id="Vector_122"></path>
<path fill="#FF1467" d="M30.3338 8.85128L21.498 3.09082H39.1663L30.3338 8.85128Z" id="Vector_123"></path>
<path fill="#FF1467" d="M30.3338 57.1553L39.1663 62.919H21.498L30.3338 57.1553Z" id="Vector_124"></path>
</g>
</g>
</g>
</svg>
