<svg xmlns="http://www.w3.org/2000/svg" fill="none" viewBox="0 0 41 40" height="40" width="41">
<g clip-path="url(#clip0_1764_6672)" id="S_Token 1">
<path fill="url(#paint0_linear_1764_6672)" d="M40.3335 20C40.3335 8.9543 31.3792 0 20.3335 0C9.2878 0 0.333496 8.9543 0.333496 20C0.333496 31.0457 9.2878 40 20.3335 40C31.3792 40 40.3335 31.0457 40.3335 20Z" id="Vector"></path>
<path fill="#141416" d="M23.7344 23.923C17.4348 25.7566 12.2236 28.4311 8.96163 31.565L8.81763 31.7041C9.68503 32.4995 10.6362 33.2111 11.6643 33.8158L11.8854 33.5539C12.7762 32.4995 13.7307 31.4808 14.7254 30.5203C17.3947 27.9428 20.4489 25.7112 23.7378 23.9197L23.7344 23.923Z" id="Vector_2"></path>
<path fill="#141416" d="M3.66675 21.2063C3.91792 24.476 5.17048 27.474 7.13639 29.9124L7.22681 29.825C9.24629 27.8943 11.8753 26.1383 15.0469 24.6085C17.8267 23.2665 21.0183 22.115 24.4578 21.2063H3.66675Z" id="Vector_3"></path>
<path fill="#141416" d="M16.4872 7.76888C22.1236 13.2118 29.2171 16.8113 36.9969 18.1759C36.0592 10.1071 28.9725 3.82983 20.3621 3.82983C18.088 3.82983 15.9212 4.26966 13.9419 5.06199C14.7457 5.99987 15.603 6.91186 16.4872 7.76888Z" id="Vector_4"></path>
<path fill="#141416" d="M8.96163 8.43509C12.2236 11.5721 17.4348 14.2434 23.7344 16.0803C20.4456 14.2855 17.3912 12.0572 14.722 9.47969C13.7307 8.52242 12.7762 7.5037 11.882 6.44617L11.661 6.1842C10.6328 6.78897 9.68169 7.50047 8.81763 8.29603L8.96163 8.43509Z" id="Vector_5"></path>
<path fill="#141416" d="M16.4872 32.2311C15.5997 33.0881 14.7423 34.0002 13.9419 34.938C15.9178 35.7303 18.088 36.1702 20.3621 36.1702C28.9725 36.1702 36.0592 29.893 37.0003 21.8208C29.2203 23.1855 22.1271 26.785 16.4905 32.228L16.4872 32.2311Z" id="Vector_6"></path>
<path fill="#141416" d="M15.0469 15.3915C11.8753 13.8618 9.24629 12.1057 7.22681 10.175L7.13639 10.0876C5.17047 12.5261 3.91792 15.5241 3.66675 18.7937H24.4545C21.015 17.885 17.8267 16.7336 15.0435 15.3882L15.0469 15.3915Z" id="Vector_7"></path>
</g>
<defs>
<linearGradient gradientUnits="userSpaceOnUse" y2="15.0912" x2="-0.0593769" y1="15.0912" x1="40.7732" id="paint0_linear_1764_6672">
<stop stop-color="#1A3746"></stop>
<stop stop-color="#2B588B" offset="0.242213"></stop>
<stop stop-color="#5A6B83" offset="0.367213"></stop>
<stop stop-color="#ED5409" offset="0.742213"></stop>
<stop stop-color="#FFCB67" offset="1"></stop>
</linearGradient>
<clipPath id="clip0_1764_6672">
<rect transform="translate(0.333496)" fill="white" height="40" width="40"></rect>
</clipPath>
</defs>
</svg>
