<svg xmlns="http://www.w3.org/2000/svg" fill="none" viewBox="0 0 361 104" height="104" width="361">
<path fill="#F5F5F5" d="M139.831 11.5584C138.704 11.0127 137.264 10.7362 135.555 10.7362H130.691C129.396 10.7362 128.36 10.3756 127.619 9.68085L127.583 9.64479C126.859 8.88273 126.511 8.02451 126.511 7.02205C126.511 6.0196 126.871 5.09407 127.583 4.34403C128.299 3.58197 129.283 3.19733 130.494 3.19733H142.461V0.598633H130.05C128.701 0.598633 127.542 0.911149 126.506 1.5482C125.47 2.154 124.686 2.9353 124.114 3.93054C123.542 4.92819 123.258 5.98354 123.258 7.16629C123.258 8.55338 123.554 9.72893 124.143 10.6665C124.775 11.6209 125.614 12.3348 126.703 12.8565C127.835 13.3373 129.179 13.5825 130.691 13.5825H135.807C136.668 13.5825 137.435 13.7796 138.084 14.1715C138.747 14.5249 139.24 15.0297 139.567 15.6716C139.887 16.2725 140.036 16.8832 140.036 17.5995C140.036 18.3159 139.86 19.0347 139.512 19.6886C139.163 20.3497 138.627 20.9002 137.927 21.3329C137.271 21.7224 136.468 21.9147 135.559 21.9147H124.044V24.5086H136.108C137.552 24.5086 138.771 24.184 139.836 23.5181C140.944 22.845 141.776 22.006 142.384 20.9363C143 19.8376 143.293 18.6982 143.293 17.4481C143.293 15.9961 142.985 14.7532 142.389 13.7676C141.829 12.7964 140.99 12.068 139.834 11.5535L139.826 11.5584H139.831Z"></path>
<path fill="#F5F5F5" d="M168.405 1.68759C166.537 0.569741 164.345 0 161.893 0C159.441 0 157.253 0.569742 155.373 1.6924C153.498 2.77899 151.993 4.29831 150.897 6.20706C149.801 8.07495 149.246 10.2121 149.246 12.5536C149.246 14.895 149.801 17.0562 150.897 18.9529C151.993 20.8256 153.501 22.3449 155.373 23.4676C157.162 24.5133 159.253 25.0638 161.58 25.1071H161.893C164.345 25.1119 166.533 24.5662 168.405 23.4748C170.316 22.3522 171.821 20.8328 172.889 18.9674C173.985 17.0634 174.54 14.9094 174.54 12.5632C174.54 10.2169 173.985 8.02447 172.889 6.15658C171.821 4.28869 170.316 2.78861 168.405 1.69721V1.68999V1.68759ZM171.232 12.5608C171.232 14.4094 170.84 16.109 170.064 17.6163C169.288 19.0996 168.191 20.2944 166.811 21.1766C165.436 22.0541 163.732 22.5156 161.888 22.5156C160.044 22.5156 158.393 22.0661 156.965 21.1766C155.585 20.2944 154.489 19.0948 153.705 17.6115C152.933 16.1114 152.537 14.4118 152.537 12.5632C152.537 10.7145 152.929 9.03414 153.705 7.5629C154.481 6.04359 155.585 4.82478 156.972 3.94252C158.393 3.05305 160.051 2.61072 161.888 2.61072C163.725 2.61072 165.412 3.06026 166.811 3.94973C168.199 4.8392 169.295 6.0508 170.071 7.55809C170.843 9.03413 171.24 10.7145 171.24 12.5656H171.232V12.5608Z"></path>
<path fill="#F5F5F5" d="M198.661 1.35836C197.01 0.46408 195.065 0.00732422 192.87 0.00732422C190.675 0.00732422 188.755 0.464079 187.067 1.37038C185.375 2.24062 184.079 3.4426 183.108 5.02682C182.18 6.59902 181.708 8.46691 181.708 10.58V24.5182H184.963V10.6281C184.963 8.99579 185.331 7.56061 186.055 6.37065C186.803 5.15904 187.791 4.21668 188.99 3.5604C190.207 2.91854 191.509 2.594 192.87 2.594C194.231 2.594 195.522 2.91854 196.702 3.5604C197.926 4.20947 198.914 5.15183 199.642 6.37545C200.395 7.56302 200.774 8.98617 200.774 10.6185V24.5086H204.034V10.5704C204.034 8.46451 203.546 6.58941 202.587 5.01721C201.647 3.42578 200.363 2.231 198.664 1.34874L198.659 1.35595L198.661 1.35836Z"></path>
<path fill="#F5F5F5" d="M215.9 0.595703H212.597V24.5128H215.9V0.595703Z"></path>
<path fill="#F5F5F5" d="M230.986 4.47332C232.438 3.62712 234.082 3.1944 235.885 3.1944H238.356V0.595703H236.036C233.548 0.595703 231.293 1.1366 229.353 2.19916C227.413 3.2569 225.858 4.71371 224.726 6.5215C223.605 8.28602 223.038 10.315 223.038 12.5555C223.038 14.796 223.605 16.8346 224.726 18.6375C225.853 20.4141 227.413 21.8492 229.353 22.9118C231.053 23.8349 234.38 24.5153 235.868 24.5153H238.356V21.9166H235.885C234.089 21.9166 232.438 21.5031 230.981 20.6857C229.57 19.8395 228.421 18.6928 227.57 17.2817C226.757 15.8657 226.341 14.2743 226.341 12.5507C226.341 10.827 226.757 9.23078 227.577 7.81484C228.421 6.41092 229.572 5.28105 230.988 4.47091V4.47812L230.986 4.47332Z"></path>
<path fill="#FF4433" d="M0.614258 102.004V33.2313H26.6496C30.4158 33.2313 33.8216 34.0173 36.8673 35.5892C39.9129 37.1284 42.32 39.3226 44.0884 42.1718C45.8896 45.0209 46.7902 48.3613 46.7902 52.1929C46.7902 53.6339 46.6101 55.1567 46.2498 56.7614C45.8896 58.3333 45.251 59.807 44.334 61.1825C43.4171 62.558 42.1071 63.6387 40.4042 64.4246C42.5983 64.9486 44.334 65.9311 45.6112 67.372C46.8885 68.813 47.8382 70.4832 48.4604 72.3826C49.1154 74.2493 49.5411 76.1487 49.7376 78.0809C49.9341 79.9804 50.0323 81.6997 50.0323 83.2389C50.0323 86.7103 49.099 89.8705 47.2323 92.7197C45.3656 95.5361 42.8603 97.7958 39.7164 99.4987C36.5725 101.169 33.1012 102.004 29.3023 102.004H0.614258ZM15.3513 89.5267H27.7303C29.4333 89.5267 30.9725 89.1337 32.3479 88.3477C33.7561 87.529 34.8696 86.4155 35.6883 85.0073C36.5398 83.5991 36.9655 81.9944 36.9655 80.1932C36.9655 78.6868 36.5398 77.2622 35.6883 75.9195C34.8696 74.544 33.7561 73.4306 32.3479 72.5791C30.9725 71.7276 29.4333 71.3019 27.7303 71.3019H15.3513V89.5267ZM15.3513 59.0211H24.8812C26.8461 59.0211 28.5327 58.3661 29.9409 57.0561C31.3491 55.7462 32.0532 54.0924 32.0532 52.0947C32.0532 50.0642 31.3491 48.5087 29.9409 47.428C28.5327 46.3472 26.8461 45.8069 24.8812 45.8069H15.3513V59.0211Z"></path>
<path fill="url(#paint0_linear_1657_8829)" d="M0.614258 102.004V33.2313H26.6496C30.4158 33.2313 33.8216 34.0173 36.8673 35.5892C39.9129 37.1284 42.32 39.3226 44.0884 42.1718C45.8896 45.0209 46.7902 48.3613 46.7902 52.1929C46.7902 53.6339 46.6101 55.1567 46.2498 56.7614C45.8896 58.3333 45.251 59.807 44.334 61.1825C43.4171 62.558 42.1071 63.6387 40.4042 64.4246C42.5983 64.9486 44.334 65.9311 45.6112 67.372C46.8885 68.813 47.8382 70.4832 48.4604 72.3826C49.1154 74.2493 49.5411 76.1487 49.7376 78.0809C49.9341 79.9804 50.0323 81.6997 50.0323 83.2389C50.0323 86.7103 49.099 89.8705 47.2323 92.7197C45.3656 95.5361 42.8603 97.7958 39.7164 99.4987C36.5725 101.169 33.1012 102.004 29.3023 102.004H0.614258ZM15.3513 89.5267H27.7303C29.4333 89.5267 30.9725 89.1337 32.3479 88.3477C33.7561 87.529 34.8696 86.4155 35.6883 85.0073C36.5398 83.5991 36.9655 81.9944 36.9655 80.1932C36.9655 78.6868 36.5398 77.2622 35.6883 75.9195C34.8696 74.544 33.7561 73.4306 32.3479 72.5791C30.9725 71.7276 29.4333 71.3019 27.7303 71.3019H15.3513V89.5267ZM15.3513 59.0211H24.8812C26.8461 59.0211 28.5327 58.3661 29.9409 57.0561C31.3491 55.7462 32.0532 54.0924 32.0532 52.0947C32.0532 50.0642 31.3491 48.5087 29.9409 47.428C28.5327 46.3472 26.8461 45.8069 24.8812 45.8069H15.3513V59.0211Z"></path>
<path fill="#FF4433" d="M74.0306 103.281C69.3803 103.281 65.0083 102.364 60.9147 100.53C56.8211 98.6636 53.2187 96.0928 50.1076 92.8179C46.9964 89.543 44.5566 85.7605 42.7882 81.4704C41.0197 77.1476 40.1355 72.53 40.1355 67.6177C40.1355 62.7053 41.0197 58.1041 42.7882 53.814C44.5566 49.4911 46.9964 45.6923 50.1076 42.4174C53.2187 39.1425 56.8211 36.5881 60.9147 34.7541C65.0083 32.8874 69.3803 31.9541 74.0306 31.9541C78.7137 31.9541 83.1021 32.8874 87.1957 34.7541C91.2893 36.5881 94.8917 39.1425 98.0028 42.4174C101.114 45.6923 103.537 49.4911 105.273 53.814C107.042 58.1041 107.926 62.7053 107.926 67.6177C107.926 72.53 107.042 77.1476 105.273 81.4704C103.537 85.7605 101.114 89.543 98.0028 92.8179C94.8917 96.0928 91.2893 98.6636 87.1957 100.53C83.1021 102.364 78.7137 103.281 74.0306 103.281ZM74.0306 88.5442C76.6505 88.5442 79.1067 88.0038 81.3991 86.9231C83.7243 85.8097 85.7711 84.3032 87.5396 82.4038C89.308 80.4716 90.6834 78.2447 91.6659 75.723C92.6811 73.2013 93.1887 70.4996 93.1887 67.6177C93.1887 64.7358 92.6811 62.034 91.6659 59.5123C90.6834 56.9906 89.308 54.7801 87.5396 52.8807C85.7711 50.9485 83.7243 49.442 81.3991 48.3613C79.1067 47.2478 76.6505 46.6911 74.0306 46.6911C71.4107 46.6911 68.9382 47.2478 66.613 48.3613C64.3206 49.442 62.2901 50.9485 60.5217 52.8807C58.7533 54.7801 57.3614 56.9906 56.3462 59.5123C55.3638 62.034 54.8725 64.7358 54.8725 67.6177C54.8725 70.4996 55.3638 73.2013 56.3462 75.723C57.3614 78.2447 58.7533 80.4716 60.5217 82.4038C62.2901 84.3032 64.3206 85.8097 66.613 86.9231C68.9382 88.0038 71.4107 88.5442 74.0306 88.5442Z"></path>
<path fill="url(#paint1_linear_1657_8829)" d="M74.0306 103.281C69.3803 103.281 65.0083 102.364 60.9147 100.53C56.8211 98.6636 53.2187 96.0928 50.1076 92.8179C46.9964 89.543 44.5566 85.7605 42.7882 81.4704C41.0197 77.1476 40.1355 72.53 40.1355 67.6177C40.1355 62.7053 41.0197 58.1041 42.7882 53.814C44.5566 49.4911 46.9964 45.6923 50.1076 42.4174C53.2187 39.1425 56.8211 36.5881 60.9147 34.7541C65.0083 32.8874 69.3803 31.9541 74.0306 31.9541C78.7137 31.9541 83.1021 32.8874 87.1957 34.7541C91.2893 36.5881 94.8917 39.1425 98.0028 42.4174C101.114 45.6923 103.537 49.4911 105.273 53.814C107.042 58.1041 107.926 62.7053 107.926 67.6177C107.926 72.53 107.042 77.1476 105.273 81.4704C103.537 85.7605 101.114 89.543 98.0028 92.8179C94.8917 96.0928 91.2893 98.6636 87.1957 100.53C83.1021 102.364 78.7137 103.281 74.0306 103.281ZM74.0306 88.5442C76.6505 88.5442 79.1067 88.0038 81.3991 86.9231C83.7243 85.8097 85.7711 84.3032 87.5396 82.4038C89.308 80.4716 90.6834 78.2447 91.6659 75.723C92.6811 73.2013 93.1887 70.4996 93.1887 67.6177C93.1887 64.7358 92.6811 62.034 91.6659 59.5123C90.6834 56.9906 89.308 54.7801 87.5396 52.8807C85.7711 50.9485 83.7243 49.442 81.3991 48.3613C79.1067 47.2478 76.6505 46.6911 74.0306 46.6911C71.4107 46.6911 68.9382 47.2478 66.613 48.3613C64.3206 49.442 62.2901 50.9485 60.5217 52.8807C58.7533 54.7801 57.3614 56.9906 56.3462 59.5123C55.3638 62.034 54.8725 64.7358 54.8725 67.6177C54.8725 70.4996 55.3638 73.2013 56.3462 75.723C57.3614 78.2447 58.7533 80.4716 60.5217 82.4038C62.2901 84.3032 64.3206 85.8097 66.613 86.9231C68.9382 88.0038 71.4107 88.5442 74.0306 88.5442Z"></path>
<path fill="#FF4433" d="M133.938 103.281C129.288 103.281 124.916 102.364 120.822 100.53C116.729 98.6636 113.126 96.0928 110.015 92.8179C106.904 89.543 104.464 85.7605 102.696 81.4704C100.927 77.1476 100.043 72.53 100.043 67.6177C100.043 62.7053 100.927 58.1041 102.696 53.814C104.464 49.4911 106.904 45.6923 110.015 42.4174C113.126 39.1425 116.729 36.5881 120.822 34.7541C124.916 32.8874 129.288 31.9541 133.938 31.9541C138.621 31.9541 143.01 32.8874 147.103 34.7541C151.197 36.5881 154.799 39.1425 157.91 42.4174C161.021 45.6923 163.445 49.4911 165.181 53.814C166.949 58.1041 167.833 62.7053 167.833 67.6177C167.833 72.53 166.949 77.1476 165.181 81.4704C163.445 85.7605 161.021 89.543 157.91 92.8179C154.799 96.0928 151.197 98.6636 147.103 100.53C143.01 102.364 138.621 103.281 133.938 103.281ZM133.938 88.5442C136.558 88.5442 139.014 88.0038 141.307 86.9231C143.632 85.8097 145.679 84.3032 147.447 82.4038C149.215 80.4716 150.591 78.2447 151.573 75.723C152.589 73.2013 153.096 70.4996 153.096 67.6177C153.096 64.7358 152.589 62.034 151.573 59.5123C150.591 56.9906 149.215 54.7801 147.447 52.8807C145.679 50.9485 143.632 49.442 141.307 48.3613C139.014 47.2478 136.558 46.6911 133.938 46.6911C131.318 46.6911 128.846 47.2478 126.52 48.3613C124.228 49.442 122.198 50.9485 120.429 52.8807C118.661 54.7801 117.269 56.9906 116.254 59.5123C115.271 62.034 114.78 64.7358 114.78 67.6177C114.78 70.4996 115.271 73.2013 116.254 75.723C117.269 78.2447 118.661 80.4716 120.429 82.4038C122.198 84.3032 124.228 85.8097 126.52 86.9231C128.846 88.0038 131.318 88.5442 133.938 88.5442Z"></path>
<path fill="url(#paint2_linear_1657_8829)" d="M133.938 103.281C129.288 103.281 124.916 102.364 120.822 100.53C116.729 98.6636 113.126 96.0928 110.015 92.8179C106.904 89.543 104.464 85.7605 102.696 81.4704C100.927 77.1476 100.043 72.53 100.043 67.6177C100.043 62.7053 100.927 58.1041 102.696 53.814C104.464 49.4911 106.904 45.6923 110.015 42.4174C113.126 39.1425 116.729 36.5881 120.822 34.7541C124.916 32.8874 129.288 31.9541 133.938 31.9541C138.621 31.9541 143.01 32.8874 147.103 34.7541C151.197 36.5881 154.799 39.1425 157.91 42.4174C161.021 45.6923 163.445 49.4911 165.181 53.814C166.949 58.1041 167.833 62.7053 167.833 67.6177C167.833 72.53 166.949 77.1476 165.181 81.4704C163.445 85.7605 161.021 89.543 157.91 92.8179C154.799 96.0928 151.197 98.6636 147.103 100.53C143.01 102.364 138.621 103.281 133.938 103.281ZM133.938 88.5442C136.558 88.5442 139.014 88.0038 141.307 86.9231C143.632 85.8097 145.679 84.3032 147.447 82.4038C149.215 80.4716 150.591 78.2447 151.573 75.723C152.589 73.2013 153.096 70.4996 153.096 67.6177C153.096 64.7358 152.589 62.034 151.573 59.5123C150.591 56.9906 149.215 54.7801 147.447 52.8807C145.679 50.9485 143.632 49.442 141.307 48.3613C139.014 47.2478 136.558 46.6911 133.938 46.6911C131.318 46.6911 128.846 47.2478 126.52 48.3613C124.228 49.442 122.198 50.9485 120.429 52.8807C118.661 54.7801 117.269 56.9906 116.254 59.5123C115.271 62.034 114.78 64.7358 114.78 67.6177C114.78 70.4996 115.271 73.2013 116.254 75.723C117.269 78.2447 118.661 80.4716 120.429 82.4038C122.198 84.3032 124.228 85.8097 126.52 86.9231C128.846 88.0038 131.318 88.5442 133.938 88.5442Z"></path>
<path fill="#FF4433" d="M193.846 103.281C189.195 103.281 184.823 102.364 180.73 100.53C176.636 98.6636 173.034 96.0928 169.922 92.8179C166.811 89.543 164.372 85.7605 162.603 81.4704C160.835 77.1476 159.95 72.53 159.95 67.6177C159.95 62.7053 160.835 58.1041 162.603 53.814C164.372 49.4911 166.811 45.6923 169.922 42.4174C173.034 39.1425 176.636 36.5881 180.73 34.7541C184.823 32.8874 189.195 31.9541 193.846 31.9541C198.529 31.9541 202.917 32.8874 207.011 34.7541C211.104 36.5881 214.707 39.1425 217.818 42.4174C220.929 45.6923 223.352 49.4911 225.088 53.814C226.856 58.1041 227.741 62.7053 227.741 67.6177C227.741 72.53 226.856 77.1476 225.088 81.4704C223.352 85.7605 220.929 89.543 217.818 92.8179C214.707 96.0928 211.104 98.6636 207.011 100.53C202.917 102.364 198.529 103.281 193.846 103.281ZM193.846 88.5442C196.465 88.5442 198.922 88.0038 201.214 86.9231C203.539 85.8097 205.586 84.3032 207.354 82.4038C209.123 80.4716 210.498 78.2447 211.481 75.723C212.496 73.2013 213.004 70.4996 213.004 67.6177C213.004 64.7358 212.496 62.034 211.481 59.5123C210.498 56.9906 209.123 54.7801 207.354 52.8807C205.586 50.9485 203.539 49.442 201.214 48.3613C198.922 47.2478 196.465 46.6911 193.846 46.6911C191.226 46.6911 188.753 47.2478 186.428 48.3613C184.135 49.442 182.105 50.9485 180.337 52.8807C178.568 54.7801 177.176 56.9906 176.161 59.5123C175.179 62.034 174.687 64.7358 174.687 67.6177C174.687 70.4996 175.179 73.2013 176.161 75.723C177.176 78.2447 178.568 80.4716 180.337 82.4038C182.105 84.3032 184.135 85.8097 186.428 86.9231C188.753 88.0038 191.226 88.5442 193.846 88.5442Z"></path>
<path fill="url(#paint3_linear_1657_8829)" d="M193.846 103.281C189.195 103.281 184.823 102.364 180.73 100.53C176.636 98.6636 173.034 96.0928 169.922 92.8179C166.811 89.543 164.372 85.7605 162.603 81.4704C160.835 77.1476 159.95 72.53 159.95 67.6177C159.95 62.7053 160.835 58.1041 162.603 53.814C164.372 49.4911 166.811 45.6923 169.922 42.4174C173.034 39.1425 176.636 36.5881 180.73 34.7541C184.823 32.8874 189.195 31.9541 193.846 31.9541C198.529 31.9541 202.917 32.8874 207.011 34.7541C211.104 36.5881 214.707 39.1425 217.818 42.4174C220.929 45.6923 223.352 49.4911 225.088 53.814C226.856 58.1041 227.741 62.7053 227.741 67.6177C227.741 72.53 226.856 77.1476 225.088 81.4704C223.352 85.7605 220.929 89.543 217.818 92.8179C214.707 96.0928 211.104 98.6636 207.011 100.53C202.917 102.364 198.529 103.281 193.846 103.281ZM193.846 88.5442C196.465 88.5442 198.922 88.0038 201.214 86.9231C203.539 85.8097 205.586 84.3032 207.354 82.4038C209.123 80.4716 210.498 78.2447 211.481 75.723C212.496 73.2013 213.004 70.4996 213.004 67.6177C213.004 64.7358 212.496 62.034 211.481 59.5123C210.498 56.9906 209.123 54.7801 207.354 52.8807C205.586 50.9485 203.539 49.442 201.214 48.3613C198.922 47.2478 196.465 46.6911 193.846 46.6911C191.226 46.6911 188.753 47.2478 186.428 48.3613C184.135 49.442 182.105 50.9485 180.337 52.8807C178.568 54.7801 177.176 56.9906 176.161 59.5123C175.179 62.034 174.687 64.7358 174.687 67.6177C174.687 70.4996 175.179 73.2013 176.161 75.723C177.176 78.2447 178.568 80.4716 180.337 82.4038C182.105 84.3032 184.135 85.8097 186.428 86.9231C188.753 88.0038 191.226 88.5442 193.846 88.5442Z"></path>
<path fill="#FF4433" d="M253.753 103.281C249.103 103.281 244.731 102.364 240.637 100.53C236.543 98.6636 232.941 96.0928 229.83 92.8179C226.719 89.543 224.279 85.7605 222.511 81.4704C220.742 77.1476 219.858 72.53 219.858 67.6177C219.858 62.7053 220.742 58.1041 222.511 53.814C224.279 49.4911 226.719 45.6923 229.83 42.4174C232.941 39.1425 236.543 36.5881 240.637 34.7541C244.731 32.8874 249.103 31.9541 253.753 31.9541C258.436 31.9541 262.824 32.8874 266.918 34.7541C271.012 36.5881 274.614 39.1425 277.725 42.4174C280.836 45.6923 283.26 49.4911 284.995 53.814C286.764 58.1041 287.648 62.7053 287.648 67.6177C287.648 72.53 286.764 77.1476 284.995 81.4704C283.26 85.7605 280.836 89.543 277.725 92.8179C274.614 96.0928 271.012 98.6636 266.918 100.53C262.824 102.364 258.436 103.281 253.753 103.281ZM253.753 88.5442C256.373 88.5442 258.829 88.0038 261.121 86.9231C263.447 85.8097 265.493 84.3032 267.262 82.4038C269.03 80.4716 270.406 78.2447 271.388 75.723C272.404 73.2013 272.911 70.4996 272.911 67.6177C272.911 64.7358 272.404 62.034 271.388 59.5123C270.406 56.9906 269.03 54.7801 267.262 52.8807C265.493 50.9485 263.447 49.442 261.121 48.3613C258.829 47.2478 256.373 46.6911 253.753 46.6911C251.133 46.6911 248.661 47.2478 246.335 48.3613C244.043 49.442 242.013 50.9485 240.244 52.8807C238.476 54.7801 237.084 56.9906 236.069 59.5123C235.086 62.034 234.595 64.7358 234.595 67.6177C234.595 70.4996 235.086 73.2013 236.069 75.723C237.084 78.2447 238.476 80.4716 240.244 82.4038C242.013 84.3032 244.043 85.8097 246.335 86.9231C248.661 88.0038 251.133 88.5442 253.753 88.5442Z"></path>
<path fill="url(#paint4_linear_1657_8829)" d="M253.753 103.281C249.103 103.281 244.731 102.364 240.637 100.53C236.543 98.6636 232.941 96.0928 229.83 92.8179C226.719 89.543 224.279 85.7605 222.511 81.4704C220.742 77.1476 219.858 72.53 219.858 67.6177C219.858 62.7053 220.742 58.1041 222.511 53.814C224.279 49.4911 226.719 45.6923 229.83 42.4174C232.941 39.1425 236.543 36.5881 240.637 34.7541C244.731 32.8874 249.103 31.9541 253.753 31.9541C258.436 31.9541 262.824 32.8874 266.918 34.7541C271.012 36.5881 274.614 39.1425 277.725 42.4174C280.836 45.6923 283.26 49.4911 284.995 53.814C286.764 58.1041 287.648 62.7053 287.648 67.6177C287.648 72.53 286.764 77.1476 284.995 81.4704C283.26 85.7605 280.836 89.543 277.725 92.8179C274.614 96.0928 271.012 98.6636 266.918 100.53C262.824 102.364 258.436 103.281 253.753 103.281ZM253.753 88.5442C256.373 88.5442 258.829 88.0038 261.121 86.9231C263.447 85.8097 265.493 84.3032 267.262 82.4038C269.03 80.4716 270.406 78.2447 271.388 75.723C272.404 73.2013 272.911 70.4996 272.911 67.6177C272.911 64.7358 272.404 62.034 271.388 59.5123C270.406 56.9906 269.03 54.7801 267.262 52.8807C265.493 50.9485 263.447 49.442 261.121 48.3613C258.829 47.2478 256.373 46.6911 253.753 46.6911C251.133 46.6911 248.661 47.2478 246.335 48.3613C244.043 49.442 242.013 50.9485 240.244 52.8807C238.476 54.7801 237.084 56.9906 236.069 59.5123C235.086 62.034 234.595 64.7358 234.595 67.6177C234.595 70.4996 235.086 73.2013 236.069 75.723C237.084 78.2447 238.476 80.4716 240.244 82.4038C242.013 84.3032 244.043 85.8097 246.335 86.9231C248.661 88.0038 251.133 88.5442 253.753 88.5442Z"></path>
<path fill="#FF4433" d="M278.276 102.004L291.638 33.2313H304.213L319.638 73.8072L335.063 33.2313H347.638L361 102.004H345.968L338.796 64.8667L324.747 102.004H314.529L300.48 64.8667L293.308 102.004H278.276Z"></path>
<path fill="url(#paint5_linear_1657_8829)" d="M278.276 102.004L291.638 33.2313H304.213L319.638 73.8072L335.063 33.2313H347.638L361 102.004H345.968L338.796 64.8667L324.747 102.004H314.529L300.48 64.8667L293.308 102.004H278.276Z"></path>
<defs>
<linearGradient gradientUnits="userSpaceOnUse" y2="59.1243" x2="-8.94326" y1="59.1243" x1="370.984" id="paint0_linear_1657_8829">
<stop stop-color="#2B588B"></stop>
<stop stop-color="#5A6B83" offset="0.363625"></stop>
<stop stop-color="#ED5409" offset="0.651499"></stop>
<stop stop-color="#FFCB67" offset="1"></stop>
</linearGradient>
<linearGradient gradientUnits="userSpaceOnUse" y2="59.1243" x2="-8.94326" y1="59.1243" x1="370.984" id="paint1_linear_1657_8829">
<stop stop-color="#2B588B"></stop>
<stop stop-color="#5A6B83" offset="0.363625"></stop>
<stop stop-color="#ED5409" offset="0.651499"></stop>
<stop stop-color="#FFCB67" offset="1"></stop>
</linearGradient>
<linearGradient gradientUnits="userSpaceOnUse" y2="59.1243" x2="-8.94326" y1="59.1243" x1="370.984" id="paint2_linear_1657_8829">
<stop stop-color="#2B588B"></stop>
<stop stop-color="#5A6B83" offset="0.363625"></stop>
<stop stop-color="#ED5409" offset="0.651499"></stop>
<stop stop-color="#FFCB67" offset="1"></stop>
</linearGradient>
<linearGradient gradientUnits="userSpaceOnUse" y2="59.1243" x2="-8.94326" y1="59.1243" x1="370.984" id="paint3_linear_1657_8829">
<stop stop-color="#2B588B"></stop>
<stop stop-color="#5A6B83" offset="0.363625"></stop>
<stop stop-color="#ED5409" offset="0.651499"></stop>
<stop stop-color="#FFCB67" offset="1"></stop>
</linearGradient>
<linearGradient gradientUnits="userSpaceOnUse" y2="59.1243" x2="-8.94326" y1="59.1243" x1="370.984" id="paint4_linear_1657_8829">
<stop stop-color="#2B588B"></stop>
<stop stop-color="#5A6B83" offset="0.363625"></stop>
<stop stop-color="#ED5409" offset="0.651499"></stop>
<stop stop-color="#FFCB67" offset="1"></stop>
</linearGradient>
<linearGradient gradientUnits="userSpaceOnUse" y2="59.1243" x2="-8.94326" y1="59.1243" x1="370.984" id="paint5_linear_1657_8829">
<stop stop-color="#2B588B"></stop>
<stop stop-color="#5A6B83" offset="0.363625"></stop>
<stop stop-color="#ED5409" offset="0.651499"></stop>
<stop stop-color="#FFCB67" offset="1"></stop>
</linearGradient>
</defs>
</svg>
