<svg xmlns="http://www.w3.org/2000/svg" fill="none" viewBox="0 0 53 74" height="74" width="53">
<g id="Group">
<g id="Objects">
<path stroke-linejoin="round" stroke-linecap="round" stroke-width="3.90099" stroke="white" d="M50.5929 17.3911L26.9724 3.02576C26.9724 3.02576 26.9594 3.01926 26.9529 3.01601C26.9172 2.9965 26.8814 2.98025 26.8424 2.96725C26.8294 2.96399 26.8197 2.96074 26.8066 2.95749C26.7611 2.94449 26.7124 2.93799 26.6604 2.93799C26.6083 2.93799 26.5628 2.94449 26.5141 2.95749C26.5011 2.95749 26.4913 2.96399 26.4783 2.96725C26.4393 2.98025 26.4035 2.9965 26.3678 3.01601C26.3613 3.01926 26.3548 3.01926 26.3483 3.02576L2.73106 17.3911C2.73106 17.3911 2.71806 17.4041 2.71156 17.4074C2.6823 17.4269 2.65629 17.4464 2.63354 17.4724C2.62379 17.4822 2.61078 17.4919 2.60103 17.5049C2.59453 17.5114 2.58478 17.5179 2.57827 17.5277C2.56202 17.5472 2.55227 17.5699 2.53927 17.5894C2.53276 17.5992 2.52626 17.6089 2.51976 17.6187C2.497 17.661 2.48075 17.7032 2.46775 17.7487C2.46775 17.7552 2.46775 17.7617 2.4645 17.7715C2.45474 17.8105 2.45149 17.8495 2.44824 17.8885C2.44824 17.895 2.44824 17.9015 2.44824 17.908V56.0954C2.44824 56.0954 2.44824 56.1084 2.44824 56.1149C2.44824 56.1539 2.45474 56.1897 2.46125 56.2254C2.46125 56.2352 2.46125 56.245 2.46775 56.2515C2.48075 56.297 2.497 56.3392 2.51976 56.3815C2.52626 56.3912 2.53276 56.3977 2.53601 56.4075C2.54902 56.4303 2.56202 56.453 2.58153 56.4758C2.58803 56.4823 2.59453 56.4888 2.60103 56.4953C2.61403 56.5083 2.62704 56.5213 2.64329 56.5343C2.66605 56.5538 2.6888 56.5733 2.71481 56.5928C2.72131 56.5993 2.72781 56.6058 2.73431 56.609L26.3548 70.9744C26.3548 70.9744 26.3678 70.9809 26.3743 70.9842C26.41 71.0037 26.4458 71.0199 26.4848 71.0329C26.4978 71.0362 26.5076 71.0394 26.5206 71.0427C26.5661 71.0557 26.6148 71.0622 26.6669 71.0622C26.7189 71.0622 26.7644 71.0557 26.8131 71.0427C26.8262 71.0427 26.8359 71.0362 26.8489 71.0329C26.8879 71.0199 26.9237 71.0037 26.9594 70.9842C26.9659 70.9809 26.9724 70.9809 26.9789 70.9744L50.5994 56.609C50.7782 56.5018 50.8855 56.3067 50.8855 56.0987V17.9015C50.8855 17.6935 50.775 17.4984 50.5994 17.3911H50.5929Z" opacity="0.48" id="Vector"></path>
<path fill="#040A14" d="M50.5929 17.3911L26.9724 3.02576C26.9724 3.02576 26.9594 3.01926 26.9529 3.01601C26.9172 2.9965 26.8814 2.98025 26.8424 2.96725C26.8294 2.96399 26.8197 2.96074 26.8066 2.95749C26.7611 2.94449 26.7124 2.93799 26.6604 2.93799C26.6083 2.93799 26.5628 2.94449 26.5141 2.95749C26.5011 2.95749 26.4913 2.96399 26.4783 2.96725C26.4393 2.98025 26.4035 2.9965 26.3678 3.01601C26.3613 3.01926 26.3548 3.01926 26.3483 3.02576L2.73106 17.3911C2.73106 17.3911 2.71806 17.4041 2.71156 17.4074C2.6823 17.4269 2.65629 17.4464 2.63354 17.4724C2.62379 17.4822 2.61078 17.4919 2.60103 17.5049C2.59453 17.5114 2.58478 17.5179 2.57827 17.5277C2.56202 17.5472 2.55227 17.5699 2.53927 17.5894C2.53276 17.5992 2.52626 17.6089 2.51976 17.6187C2.497 17.661 2.48075 17.7032 2.46775 17.7487C2.46775 17.7552 2.46775 17.7617 2.4645 17.7715C2.45474 17.8105 2.45149 17.8495 2.44824 17.8885C2.44824 17.895 2.44824 17.9015 2.44824 17.908V56.0954C2.44824 56.0954 2.44824 56.1084 2.44824 56.1149C2.44824 56.1539 2.45474 56.1897 2.46125 56.2254C2.46125 56.2352 2.46125 56.245 2.46775 56.2515C2.48075 56.297 2.497 56.3392 2.51976 56.3815C2.52626 56.3912 2.53276 56.3977 2.53601 56.4075C2.54902 56.4303 2.56202 56.453 2.58153 56.4758C2.58803 56.4823 2.59453 56.4888 2.60103 56.4953C2.61403 56.5083 2.62704 56.5213 2.64329 56.5343C2.66605 56.5538 2.6888 56.5733 2.71481 56.5928C2.72131 56.5993 2.72781 56.6058 2.73431 56.609L26.3548 70.9744C26.3548 70.9744 26.3678 70.9809 26.3743 70.9842C26.41 71.0037 26.4458 71.0199 26.4848 71.0329C26.4978 71.0362 26.5076 71.0394 26.5206 71.0427C26.5661 71.0557 26.6148 71.0622 26.6669 71.0622C26.7189 71.0622 26.7644 71.0557 26.8131 71.0427C26.8262 71.0427 26.8359 71.0362 26.8489 71.0329C26.8879 71.0199 26.9237 71.0037 26.9594 70.9842C26.9659 70.9809 26.9724 70.9809 26.9789 70.9744L50.5994 56.609C50.7782 56.5018 50.8855 56.3067 50.8855 56.0987V17.9015C50.8855 17.6935 50.775 17.4984 50.5994 17.3911H50.5929Z" id="Vector_2"></path>
<g id="Group_2">
<path fill="#00A2FF" d="M49.6862 34.7244L44.2249 23.6586L49.6862 19.322V34.7244Z" id="Vector_3"></path>
<path fill="#00A2FF" d="M37.2455 27.6801L27.2622 21.6075V14.3452L42.4208 23.5645L37.2455 27.6801Z" id="Vector_4"></path>
<path fill="#00A2FF" d="M26.664 51.349L16.6353 45.2505V28.7428L26.664 22.6443L36.6928 28.7428V45.2505L26.664 51.349Z" id="Vector_5"></path>
<path fill="#00A2FF" d="M26.0656 21.6075L16.0855 27.6768L10.959 23.5353L26.0656 14.3452V21.6075Z" id="Vector_6"></path>
<path fill="#00A2FF" d="M15.439 28.6908V45.1399L10.5205 49.1774V24.7183L15.439 28.6908Z" id="Vector_7"></path>
<path fill="#00A2FF" d="M15.9751 46.2485L26.0656 52.3861V59.6484L10.894 50.4193L15.9751 46.2485Z" id="Vector_8"></path>
<path fill="#00A2FF" d="M27.2622 52.3862L37.239 46.3169L42.3103 50.4942L27.2622 59.6485V52.3862Z" id="Vector_9"></path>
<path fill="#00A2FF" d="M37.8887 45.3026V28.6941L42.8039 24.7866V49.3498L37.8887 45.3026Z" id="Vector_10"></path>
<path fill="#00A2FF" d="M28.4229 13.6528L38.4256 11.8518L42.3949 22.1504L28.4229 13.6528Z" id="Vector_11"></path>
<path fill="#00A2FF" d="M10.9333 22.1504L14.9026 11.8518L24.9054 13.6528L10.9333 22.1504Z" id="Vector_12"></path>
<path fill="#00A2FF" d="M9.32433 48.0789L3.85645 36.9968L9.32433 25.9148V48.0789Z" id="Vector_13"></path>
<path fill="#00A2FF" d="M24.9054 60.3409L14.9026 62.1419L10.9333 51.8433L24.9054 60.3409Z" id="Vector_14"></path>
<path fill="#00A2FF" d="M42.3949 51.8433L38.4256 62.1419L28.4229 60.3409L42.3949 51.8433Z" id="Vector_15"></path>
<path fill="#00A2FF" d="M44.0039 48.0789V25.9148L49.4718 36.9968L44.0039 48.0789Z" id="Vector_16"></path>
<path fill="#00A2FF" d="M43.7989 22.4689L39.8687 12.2678L49.3675 18.0445L43.7989 22.4689Z" id="Vector_17"></path>
<path fill="#00A2FF" d="M27.2622 12.6449V4.59912L37.4698 10.8082L27.2622 12.6449Z" id="Vector_18"></path>
<path fill="#00A2FF" d="M26.0657 12.6449L15.8582 10.8082L26.0657 4.59912V12.6449Z" id="Vector_19"></path>
<path fill="#00A2FF" d="M9.55495 22.3974L4.08057 17.973L13.4592 12.2678L9.55495 22.3974Z" id="Vector_20"></path>
<path fill="#00A2FF" d="M9.13549 23.5969L3.6416 34.7244V19.1562L9.13549 23.5969Z" id="Vector_21"></path>
<path fill="#00A2FF" d="M9.10623 50.3381L3.6416 54.8242V39.269L9.10623 50.3381Z" id="Vector_22"></path>
<path fill="#00A2FF" d="M9.53235 51.5376L13.4593 61.7257L4.07422 56.0172L9.53235 51.5376Z" id="Vector_23"></path>
<path fill="#00A2FF" d="M26.0657 61.3486V69.3912L15.8582 63.1853L26.0657 61.3486Z" id="Vector_24"></path>
<path fill="#00A2FF" d="M27.2622 61.3486L37.4698 63.1853L27.2622 69.3912V61.3486Z" id="Vector_25"></path>
<path fill="#00A2FF" d="M43.7436 51.6709L49.1205 56.0985L39.8687 61.7257L43.7436 51.6709Z" id="Vector_26"></path>
<path fill="#00A2FF" d="M44.1597 50.4649L49.6861 39.269V55.0128L44.1597 50.4649Z" id="Vector_27"></path>
</g>
<g id="Group_3">
<path fill="white" d="M49.6862 34.7244L44.2249 23.6586L49.6862 19.322V34.7244Z" opacity="0.1" id="Vector_28"></path>
<path fill="white" d="M37.2455 27.6801L27.2622 21.6075V14.3452L42.4208 23.5645L37.2455 27.6801Z" opacity="0.4" id="Vector_29"></path>
<path fill="white" d="M26.664 51.349L16.6353 45.2505V28.7428L26.664 22.6443L36.6928 28.7428V45.2505L26.664 51.349Z" opacity="0.6" id="Vector_30"></path>
<path fill="white" d="M26.0656 21.6075L16.0855 27.6768L10.959 23.5353L26.0656 14.3452V21.6075Z" opacity="0.6" id="Vector_31"></path>
<path fill="white" d="M15.439 28.6908V45.1399L10.5205 49.1774V24.7183L15.439 28.6908Z" opacity="0.8" id="Vector_32"></path>
<path fill="white" d="M15.9751 46.2485L26.0656 52.3861V59.6484L10.894 50.4193L15.9751 46.2485Z" opacity="0.6" id="Vector_33"></path>
<path fill="white" d="M27.2622 52.3862L37.239 46.3169L42.3103 50.4942L27.2622 59.6485V52.3862Z" opacity="0.4" id="Vector_34"></path>
<path fill="white" d="M37.8887 45.3026V28.6941L42.8039 24.7866V49.3498L37.8887 45.3026Z" opacity="0.1" id="Vector_35"></path>
<path fill="white" d="M28.4229 13.6528L38.4256 11.8518L42.3949 22.1504L28.4229 13.6528Z" opacity="0.6" id="Vector_36"></path>
<path fill="white" d="M10.9333 22.1504L14.9026 11.8518L24.9054 13.6528L10.9333 22.1504Z" opacity="0.8" id="Vector_37"></path>
<path fill="white" d="M9.32433 48.0789L3.85645 36.9968L9.32433 25.9148V48.0789Z" opacity="0.6" id="Vector_38"></path>
<path fill="white" d="M24.9054 60.3409L14.9026 62.1419L10.9333 51.8433L24.9054 60.3409Z" opacity="0.8" id="Vector_39"></path>
<path fill="white" d="M42.3949 51.8433L38.4256 62.1419L28.4229 60.3409L42.3949 51.8433Z" opacity="0.6" id="Vector_40"></path>
<path fill="white" d="M44.0039 48.0789V25.9148L49.4718 36.9968L44.0039 48.0789Z" opacity="0.6" id="Vector_41"></path>
<path fill="white" d="M43.7989 22.4689L39.8687 12.2678L49.3675 18.0445L43.7989 22.4689Z" opacity="0.4" id="Vector_42"></path>
<path fill="white" d="M27.2622 12.6449V4.59912L37.4698 10.8082L27.2622 12.6449Z" opacity="0.4" id="Vector_43"></path>
<path fill="white" d="M26.0657 12.6449L15.8582 10.8082L26.0657 4.59912V12.6449Z" opacity="0.6" id="Vector_44"></path>
<path fill="white" d="M9.55495 22.3974L4.08057 17.973L13.4592 12.2678L9.55495 22.3974Z" opacity="0.6" id="Vector_45"></path>
<path fill="white" d="M9.13549 23.5969L3.6416 34.7244V19.1562L9.13549 23.5969Z" opacity="0.8" id="Vector_46"></path>
<path fill="white" d="M9.10623 50.3381L3.6416 54.8242V39.269L9.10623 50.3381Z" opacity="0.8" id="Vector_47"></path>
<path fill="white" d="M9.53235 51.5376L13.4593 61.7257L4.07422 56.0172L9.53235 51.5376Z" opacity="0.6" id="Vector_48"></path>
<path fill="white" d="M26.0657 61.3486V69.3912L15.8582 63.1853L26.0657 61.3486Z" opacity="0.6" id="Vector_49"></path>
<path fill="white" d="M27.2622 61.3486L37.4698 63.1853L27.2622 69.3912V61.3486Z" opacity="0.4" id="Vector_50"></path>
<path fill="white" d="M43.7436 51.6709L49.1205 56.0985L39.8687 61.7257L43.7436 51.6709Z" opacity="0.4" id="Vector_51"></path>
<path fill="white" d="M44.1597 50.4649L49.6861 39.269V55.0128L44.1597 50.4649Z" opacity="0.1" id="Vector_52"></path>
</g>
<g opacity="0.4" style="mix-blend-mode:overlay" id="Group_4">
<path fill="#00A2FF" d="M49.6862 34.7244L44.2249 23.6586L49.6862 19.322V34.7244Z" id="Vector_53"></path>
<path fill="#00A2FF" d="M37.2455 27.6801L27.2622 21.6075V14.3452L42.4208 23.5645L37.2455 27.6801Z" id="Vector_54"></path>
<path fill="#00A2FF" d="M26.0656 21.6075L16.0855 27.6768L10.959 23.5353L26.0656 14.3452V21.6075Z" id="Vector_55"></path>
<path fill="#00A2FF" d="M15.439 28.6908V45.1399L10.5205 49.1774V24.7183L15.439 28.6908Z" id="Vector_56"></path>
<path fill="#00A2FF" d="M15.9751 46.2485L26.0656 52.3861V59.6484L10.894 50.4193L15.9751 46.2485Z" id="Vector_57"></path>
<path fill="#00A2FF" d="M27.2622 52.3862L37.239 46.3169L42.3103 50.4942L27.2622 59.6485V52.3862Z" id="Vector_58"></path>
<path fill="#00A2FF" d="M37.8887 45.3026V28.6941L42.8039 24.7866V49.3498L37.8887 45.3026Z" id="Vector_59"></path>
<path fill="#00A2FF" d="M28.4229 13.6528L38.4256 11.8518L42.3949 22.1504L28.4229 13.6528Z" id="Vector_60"></path>
<path fill="#00A2FF" d="M10.9333 22.1504L14.9026 11.8518L24.9054 13.6528L10.9333 22.1504Z" id="Vector_61"></path>
<path fill="#00A2FF" d="M9.32433 48.0789L3.85645 36.9968L9.32433 25.9148V48.0789Z" id="Vector_62"></path>
<path fill="#00A2FF" d="M24.9054 60.3409L14.9026 62.1419L10.9333 51.8433L24.9054 60.3409Z" id="Vector_63"></path>
<path fill="#00A2FF" d="M42.3949 51.8433L38.4256 62.1419L28.4229 60.3409L42.3949 51.8433Z" id="Vector_64"></path>
<path fill="#00A2FF" d="M44.0039 48.0789V25.9148L49.4718 36.9968L44.0039 48.0789Z" id="Vector_65"></path>
<path fill="#00A2FF" d="M43.7989 22.4689L39.8687 12.2678L49.3675 18.0445L43.7989 22.4689Z" id="Vector_66"></path>
<path fill="#00A2FF" d="M27.2622 12.6449V4.59912L37.4698 10.8082L27.2622 12.6449Z" id="Vector_67"></path>
<path fill="#00A2FF" d="M26.0657 12.6449L15.8582 10.8082L26.0657 4.59912V12.6449Z" id="Vector_68"></path>
<path fill="#00A2FF" d="M9.55495 22.3974L4.08057 17.973L13.4592 12.2678L9.55495 22.3974Z" id="Vector_69"></path>
<path fill="#00A2FF" d="M9.13549 23.5969L3.6416 34.7244V19.1562L9.13549 23.5969Z" id="Vector_70"></path>
<path fill="#00A2FF" d="M9.10623 50.3381L3.6416 54.8242V39.269L9.10623 50.3381Z" id="Vector_71"></path>
<path fill="#00A2FF" d="M9.53235 51.5376L13.4593 61.7257L4.07422 56.0172L9.53235 51.5376Z" id="Vector_72"></path>
<path fill="#00A2FF" d="M26.0657 61.3486V69.3912L15.8582 63.1853L26.0657 61.3486Z" id="Vector_73"></path>
<path fill="#00A2FF" d="M27.2622 61.3486L37.4698 63.1853L27.2622 69.3912V61.3486Z" id="Vector_74"></path>
<path fill="#00A2FF" d="M43.7436 51.6709L49.1205 56.0985L39.8687 61.7257L43.7436 51.6709Z" id="Vector_75"></path>
<path fill="#00A2FF" d="M44.1597 50.4649L49.6861 39.269V55.0128L44.1597 50.4649Z" id="Vector_76"></path>
</g>
</g>
</g>
</svg>
