<svg xmlns="http://www.w3.org/2000/svg" fill="none" viewBox="0 0 40 40" height="40" width="40">
<g id="Navigation">
<path fill="white" d="M6.66675 35V7.5C6.66675 6.83333 6.91675 6.25 7.41675 5.75C7.91675 5.25 8.50008 5 9.16675 5H20.3751C21.0417 5 21.6251 5.25 22.1251 5.75C22.6251 6.25 22.8751 6.83333 22.8751 7.5V19.5H25.5834C26.1563 19.5 26.6468 19.704 27.0547 20.112C27.4627 20.52 27.6667 21.0104 27.6667 21.5833V30.7083C27.6667 31.3104 27.882 31.8151 28.3126 32.2224C28.7431 32.6297 29.264 32.8333 29.8751 32.8333C30.4862 32.8333 31.007 32.6297 31.4376 32.2224C31.8681 31.8151 32.0834 31.3104 32.0834 30.7083V18.4167C31.7779 18.5833 31.4584 18.7083 31.1251 18.7917C30.7917 18.875 30.4584 18.9167 30.1251 18.9167C29.0284 18.9167 28.1015 18.5381 27.3442 17.7808C26.587 17.0236 26.2084 16.0967 26.2084 15C26.2084 14.1218 26.4584 13.3328 26.9584 12.633C27.4584 11.9332 28.1251 11.4722 28.9584 11.25L25.0001 7.29167L26.5001 5.83333L32.8751 12.2083C33.264 12.5972 33.5765 13.0208 33.8126 13.4792C34.0487 13.9375 34.1667 14.4444 34.1667 15V30.7083C34.1667 31.91 33.7526 32.9257 32.9244 33.7554C32.0961 34.5851 31.0822 35 29.8827 35C28.6832 35 27.6667 34.5851 26.8334 33.7554C26.0001 32.9257 25.5834 31.91 25.5834 30.7083V21.5833H22.8751V35H6.66675ZM9.16675 17H20.3751V7.5H9.16675V17ZM30.1251 16.8333C30.6251 16.8333 31.0556 16.6528 31.4167 16.2917C31.7779 15.9306 31.9584 15.5 31.9584 15C31.9584 14.5 31.7779 14.0694 31.4167 13.7083C31.0556 13.3472 30.6251 13.1667 30.1251 13.1667C29.6251 13.1667 29.1945 13.3472 28.8334 13.7083C28.4723 14.0694 28.2917 14.5 28.2917 15C28.2917 15.5 28.4723 15.9306 28.8334 16.2917C29.1945 16.6528 29.6251 16.8333 30.1251 16.8333ZM9.16675 32.5H20.3751V19.5H9.16675V32.5Z" id="Vector"></path>
</g>
</svg>
